<svg width="26" height="26" viewBox="0 0 26 26" fill="none" xmlns="http://www.w3.org/2000/svg">
<g clip-path="url(#clip0)">
<path d="M22.7764 0H3.70494C1.95143 0 0.526367 1.42506 0.526367 3.17857V22.25C0.526367 24.0025 1.95143 25.4286 3.70494 25.4286H22.7764C24.5288 25.4286 25.9549 24.0025 25.9549 22.25V3.17857C25.9549 1.42506 24.5288 0 22.7764 0Z" fill="#3B5999"/>
<path d="M18.0085 12.7145V9.53592C18.0085 8.65864 18.7205 8.74128 19.5978 8.74128H21.1871V4.76807H18.0085C15.3745 4.76807 13.2406 6.90195 13.2406 9.53592V12.7145H10.0621V16.6877H13.2406V25.4288H18.0085V16.6877H20.3924L21.9817 12.7145H18.0085Z" fill="white"/>
</g>
<defs>
<clipPath id="clip0">
<rect width="25.4286" height="25.4286" fill="white" transform="translate(0.526367)"/>
</clipPath>
</defs>
</svg>
