<svg width="26" height="26" viewBox="0 0 26 26" fill="none" xmlns="http://www.w3.org/2000/svg">
<g clip-path="url(#clip0)">
<path d="M1.58935 1.73034C-0.408912 3.80594 6.43432e-05 6.01081 6.43432e-05 12.7091C6.43432e-05 18.2716 -0.97046 23.8479 4.1089 25.1606C5.695 25.5686 19.7485 25.5686 21.3325 25.1585C23.4473 24.6129 25.168 22.8975 25.4032 19.9065C25.4361 19.489 25.4361 5.93665 25.4021 5.51072C25.1521 2.32473 23.1909 0.488574 20.6067 0.116681C20.0145 0.0308596 19.8958 0.00543106 16.8571 0.00013344C6.07855 0.00543106 3.71581 -0.474533 1.58935 1.73034Z" fill="#DF437D"/>
<path d="M12.7121 3.32596C8.86495 3.32596 5.21171 2.98373 3.81632 6.56492C3.23993 8.04402 3.32364 9.96493 3.32364 12.7155C3.32364 15.1291 3.24629 17.3975 3.81632 18.8649C5.20853 22.4482 8.89143 22.105 12.71 22.105C16.3939 22.105 20.1923 22.4885 21.6047 18.8649C22.1821 17.371 22.0973 15.4787 22.0973 12.7155C22.0973 9.04739 22.2997 6.67935 20.5208 4.90147C18.7196 3.10028 16.2837 3.32596 12.7078 3.32596H12.7121ZM11.8708 5.01802C19.8956 5.0053 20.917 4.11318 20.3534 16.5064C20.1531 20.8897 16.8156 20.4087 12.7131 20.4087C5.2329 20.4087 5.01782 20.1946 5.01782 12.7112C5.01782 5.14092 5.61115 5.02225 11.8708 5.0159V5.01802ZM17.7236 6.57657C17.1017 6.57657 16.5974 7.08091 16.5974 7.70285C16.5974 8.32479 17.1017 8.82912 17.7236 8.82912C18.3456 8.82912 18.8499 8.32479 18.8499 7.70285C18.8499 7.08091 18.3456 6.57657 17.7236 6.57657ZM12.7121 7.89356C10.0495 7.89356 7.89124 10.0529 7.89124 12.7155C7.89124 15.378 10.0495 17.5363 12.7121 17.5363C15.3747 17.5363 17.5319 15.378 17.5319 12.7155C17.5319 10.0529 15.3747 7.89356 12.7121 7.89356ZM12.7121 9.58562C16.8495 9.58562 16.8548 15.8453 12.7121 15.8453C8.5757 15.8453 8.56934 9.58562 12.7121 9.58562Z" fill="white"/>
</g>
<defs>
<clipPath id="clip0">
<rect width="25.4286" height="25.4286" fill="white"/>
</clipPath>
</defs>
</svg>
