<svg width="27" height="26" viewBox="0 0 27 26" fill="none" xmlns="http://www.w3.org/2000/svg">
<rect x="0.428589" width="26.0977" height="25.4286" rx="5.89474" fill="#558DE0"/>
<path d="M19.87 11.6672C20.1174 11.387 20.3139 11.1621 20.4589 10.9924C21.5036 9.77519 21.9565 8.99763 21.8177 8.65863L21.7632 8.57924C21.7271 8.53155 21.6333 8.48776 21.4824 8.44812C21.3314 8.40851 21.1382 8.40218 20.9028 8.42833L18.2939 8.44445C18.2335 8.43918 18.1731 8.44041 18.1127 8.44812C18.0523 8.45617 18.0131 8.46424 17.9949 8.47195C17.9767 8.48002 17.9617 8.4865 17.9497 8.49177L17.9135 8.5156C17.8833 8.53138 17.8501 8.55925 17.8139 8.59906C17.7776 8.63884 17.7472 8.68495 17.7233 8.73805C17.4394 9.37836 17.1164 9.97382 16.754 10.5242C16.5305 10.8524 16.3251 11.137 16.1381 11.3775C15.9509 11.6185 15.7939 11.7958 15.667 11.9093C15.5402 12.0231 15.4254 12.1146 15.3228 12.1831C15.22 12.2522 15.1416 12.2811 15.0874 12.2706C15.033 12.2601 14.9816 12.2496 14.9334 12.2387C14.8488 12.1912 14.7808 12.1265 14.7296 12.0443C14.6782 11.9625 14.6436 11.8592 14.6253 11.7348C14.6073 11.6105 14.5966 11.5032 14.5937 11.4131C14.5905 11.3232 14.5921 11.1963 14.5983 11.032C14.6044 10.8679 14.6073 10.757 14.6073 10.6986C14.6073 10.4978 14.6119 10.2794 14.621 10.0438C14.63 9.80839 14.6376 9.6217 14.6436 9.48408C14.6496 9.34666 14.6526 9.20099 14.6526 9.04744C14.6526 8.89424 14.642 8.77363 14.6207 8.68619C14.5995 8.59906 14.5677 8.51439 14.5257 8.43219C14.4833 8.35034 14.4215 8.28669 14.3399 8.24184C14.2583 8.19679 14.1573 8.16122 14.0365 8.13455C13.7162 8.07091 13.3086 8.03691 12.8136 8.03133C11.6902 8.02116 10.9686 8.0846 10.6485 8.22202C10.5217 8.28039 10.4069 8.35962 10.3043 8.46023C10.1955 8.5768 10.1805 8.64042 10.2591 8.65058C10.6215 8.69827 10.878 8.81221 11.029 8.99205L11.0834 9.08722C11.1256 9.15628 11.1678 9.27795 11.2102 9.45252C11.2524 9.62711 11.2796 9.82027 11.2918 10.032C11.322 10.4183 11.322 10.7489 11.2918 11.0243C11.2616 11.2997 11.233 11.5139 11.2058 11.6671C11.1786 11.8206 11.1378 11.9449 11.0836 12.0401C11.0292 12.1356 10.993 12.1938 10.9748 12.215C10.9566 12.236 10.9416 12.2494 10.9296 12.2547C10.851 12.2809 10.7696 12.2943 10.685 12.2943C10.6004 12.2943 10.4977 12.2571 10.377 12.1829C10.2561 12.1092 10.1307 12.0071 10.0011 11.8774C9.87108 11.7479 9.72485 11.5665 9.56163 11.3335C9.39861 11.1009 9.22938 10.8255 9.05436 10.5081L8.90954 10.2778C8.81894 10.1298 8.6951 9.91404 8.53809 9.63095C8.38108 9.34786 8.24205 9.07408 8.12145 8.80923C8.07304 8.69827 8.00062 8.61361 7.90404 8.55524L7.85884 8.53141C7.82864 8.51036 7.78023 8.48776 7.71382 8.46407C7.64721 8.44024 7.57802 8.42306 7.5054 8.41237L5.02334 8.42815C4.76972 8.42815 4.5977 8.47865 4.50711 8.57924L4.47089 8.62675C4.45259 8.65339 4.4436 8.69581 4.4436 8.75384C4.4436 8.81221 4.46181 8.88355 4.49802 8.96805C4.86045 9.71441 5.25451 10.4341 5.68014 11.1272C6.106 11.8206 6.47585 12.3791 6.78987 12.8024C7.10389 13.2261 7.42392 13.6254 7.75017 14.0012C8.07641 14.377 8.29222 14.6176 8.39782 14.7233C8.50342 14.8294 8.58643 14.9088 8.64686 14.9616L8.87329 15.1523C9.01811 15.2792 9.23114 15.4313 9.51199 15.6087C9.7928 15.7861 10.1037 15.9607 10.4451 16.1325C10.7861 16.3046 11.1834 16.4446 11.6362 16.5533C12.0891 16.662 12.5299 16.7056 12.9587 16.6843H14.0005C14.2119 16.6685 14.3719 16.6105 14.4805 16.5097L14.5167 16.47C14.5407 16.4385 14.5635 16.3894 14.5847 16.3233C14.6057 16.2572 14.6166 16.1843 14.6166 16.1051C14.6103 15.8776 14.6302 15.6722 14.6754 15.4898C14.7206 15.3072 14.7719 15.1698 14.8294 15.0769C14.8868 14.9845 14.9516 14.9063 15.0241 14.8427C15.0966 14.7791 15.1478 14.741 15.1782 14.7277C15.2084 14.7147 15.2326 14.7054 15.2506 14.6998C15.3954 14.6576 15.566 14.6986 15.7625 14.8229C15.9587 14.9475 16.1429 15.1007 16.3151 15.2833C16.4871 15.466 16.6939 15.6709 16.9356 15.8986C17.177 16.1261 17.3884 16.2954 17.5696 16.4065L17.7509 16.5021C17.8716 16.5654 18.0285 16.6236 18.2219 16.6767C18.4151 16.7295 18.5844 16.7428 18.7292 16.7163L21.0482 16.6844C21.2776 16.6844 21.4558 16.6515 21.5827 16.5852C21.7095 16.5195 21.7849 16.4462 21.8091 16.367C21.8331 16.2876 21.8347 16.198 21.8137 16.0972C21.7926 15.9967 21.7713 15.9266 21.7504 15.887C21.7292 15.8474 21.7095 15.8141 21.6913 15.7878C21.3893 15.3116 20.8126 14.7266 19.9611 14.0334L19.9429 14.0176L19.9339 14.0095L19.9249 14.0018H19.9158C19.5292 13.6789 19.2848 13.4619 19.1821 13.3506C18.995 13.1392 18.9525 12.9249 19.0554 12.7079C19.1274 12.5433 19.399 12.1966 19.87 11.6672Z" fill="white"/>
</svg>
