<svg width="34" height="31" viewBox="0 0 34 31" fill="none" xmlns="http://www.w3.org/2000/svg">
<path d="M33.8773 20.7887C33.9282 20.6537 33.9461 20.505 33.8993 20.355L31.181 11.5936V3.51005C31.181 1.63098 29.6396 0.100983 27.7435 0.100983H7.11852C5.22238 0.100983 3.68105 1.63098 3.68105 3.51005V11.5937L0.962677 20.355C0.915948 20.5036 0.933802 20.6523 0.984655 20.7887C0.951655 20.9332 0.93103 21.0819 0.93103 21.2373V26.6918V29.4191C0.93103 29.7955 1.23905 30.101 1.61855 30.101H4.36857C4.748 30.101 5.05602 29.7955 5.05602 29.4191V27.3737H29.806V29.4191C29.806 29.7955 30.114 30.101 30.4935 30.101H33.2435C33.623 30.101 33.931 29.7955 33.931 29.4191V26.6918V21.2373C33.931 21.0819 33.9103 20.9332 33.8773 20.7887ZM5.05602 3.51005C5.05602 2.38231 5.98137 1.4646 7.11852 1.4646H27.7435C28.8806 1.4646 29.806 2.38231 29.806 3.51005V11.01H27.9374L27.2966 8.46824C27.0656 7.55597 26.242 6.91913 25.2946 6.91913H20.8685C19.7313 6.91913 18.806 7.83683 18.806 8.96458V11.01H16.056V8.96592C16.056 7.83818 15.1306 6.92047 13.9935 6.92047H9.56735C8.61995 6.92047 7.79637 7.55865 7.56537 8.46958L6.92464 11.01H5.05602V3.51005ZM26.5253 12.1118C26.3933 12.2782 26.1953 12.3737 25.9821 12.3737H20.8685C20.4903 12.3737 20.181 12.0682 20.181 11.6918V8.96458C20.181 8.58822 20.4903 8.28274 20.8685 8.28274H25.2959C25.6122 8.28274 25.8858 8.49413 25.9628 8.7982L26.6504 11.5255C26.7026 11.7314 26.6573 11.9441 26.5253 12.1118ZM14.6824 8.96458V11.685C14.6824 11.6878 14.681 11.6891 14.681 11.6919C14.681 11.6932 14.681 11.6946 14.681 11.6946C14.6797 12.0696 14.3717 12.3737 13.9949 12.3737H8.88131C8.66681 12.3737 8.47016 12.2783 8.33816 12.1119C8.20616 11.9442 8.16079 11.7301 8.21306 11.5256L8.90058 8.79826C8.9776 8.49553 9.2512 8.28281 9.56883 8.28281H13.9949C14.373 8.28274 14.6824 8.58822 14.6824 8.96458ZM4.87588 12.3737H6.94527C7.01817 12.5782 7.11304 12.7746 7.25187 12.9518C7.64787 13.4509 8.24052 13.7373 8.87989 13.7373H13.9935C14.8887 13.7373 15.6449 13.1645 15.9295 12.3737H18.9325C19.2171 13.1659 19.9733 13.7373 20.8685 13.7373H25.9821C26.6215 13.7373 27.2127 13.4509 27.6087 12.9518C27.7476 12.7759 27.8425 12.5782 27.9153 12.3737H29.9861L32.1091 19.2164C32.0293 19.2069 31.951 19.1919 31.8685 19.1919H2.99353C2.91103 19.1919 2.83265 19.2069 2.75428 19.2164L4.87588 12.3737ZM3.68105 28.7373H2.30601V27.3737H3.68098V28.7373H3.68105ZM32.556 28.7373H31.181V27.3737H32.556V28.7373ZM32.556 26.0101H2.30601V21.2373C2.30601 20.861 2.61538 20.5555 2.99353 20.5555H31.8685C32.2466 20.5555 32.556 20.861 32.556 21.2373V26.0101Z" fill="#808080"/>
</svg>
