<svg width="23" height="32" viewBox="0 0 23 32" fill="none" xmlns="http://www.w3.org/2000/svg">
<mask id="path-1-outside-1" maskUnits="userSpaceOnUse" x="-0.700958" y="-0.0640259" width="24" height="32" fill="black">
<rect fill="white" x="-0.700958" y="-0.0640259" width="24" height="32"/>
<path d="M20.7951 17.498L22.5142 3.74606C22.5581 3.39431 22.5268 3.03724 22.4222 2.69853C22.3176 2.35982 22.1422 2.04723 21.9076 1.78148C21.673 1.51573 21.3846 1.30291 21.0615 1.15714C20.7384 1.01137 20.3879 0.93598 20.0335 0.935974H13.185C12.6765 0.937604 12.1804 1.09356 11.7625 1.38322C11.3445 1.67288 11.0243 2.08259 10.8442 2.55816L7.65777 11.0553C7.44901 11.6066 7.07779 12.0816 6.59322 12.4175C6.10865 12.7533 5.53355 12.9341 4.944 12.936H1.79904C1.40136 12.9364 1.02009 13.0946 0.738884 13.3758C0.457678 13.657 0.299497 14.0383 0.299042 14.436V17.436C0.29904 17.5016 0.311971 17.5666 0.337098 17.6273C0.362225 17.688 0.399054 17.7431 0.445484 17.7895C0.491914 17.8359 0.547034 17.8728 0.607697 17.8979C0.668361 17.923 0.73338 17.936 0.799041 17.936H2.21625L0.44043 29.4787C0.390648 29.8023 0.468237 30.1325 0.656886 30.4C0.845534 30.6675 1.13055 30.8515 1.45202 30.9132C1.77349 30.975 2.10637 30.9097 2.3807 30.7311C2.65502 30.5525 2.84942 30.2745 2.92303 29.9555L5.69678 17.936H7.58975L5.81393 29.4787C5.76414 29.8023 5.84172 30.1325 6.03037 30.4C6.21902 30.6676 6.50404 30.8515 6.82551 30.9133C7.14699 30.975 7.47988 30.9097 7.75421 30.7311C8.02854 30.5525 8.22293 30.2745 8.29653 29.9555L11.0703 17.936H13.0278L15.8015 29.9555C15.8751 30.2745 16.0695 30.5525 16.3438 30.7311C16.6182 30.9097 16.9511 30.975 17.2725 30.9133C17.594 30.8515 17.879 30.6676 18.0677 30.4C18.2563 30.1325 18.3339 29.8023 18.2841 29.4788L16.5083 17.936H17.0278L19.8015 29.9555C19.8751 30.2745 20.0695 30.5525 20.3438 30.7311C20.6182 30.9097 20.951 30.975 21.2725 30.9133C21.594 30.8515 21.879 30.6676 22.0677 30.4C22.2563 30.1325 22.3339 29.8023 22.2841 29.4788L20.5016 17.8926C20.5804 17.8577 20.6489 17.8031 20.7003 17.7339C20.7518 17.6648 20.7844 17.5835 20.7951 17.498ZM3.79904 13.936H4.944C5.73696 13.9334 6.51049 13.6902 7.16225 13.2386C7.81401 12.7869 8.31331 12.148 8.59411 11.4064L11.7805 2.9093C11.8886 2.62395 12.0807 2.37812 12.3315 2.20432C12.5823 2.03052 12.8799 1.93695 13.185 1.93597H20.0335C20.2461 1.93598 20.4564 1.98121 20.6503 2.06867C20.8442 2.15613 21.0172 2.28382 21.158 2.44327C21.2987 2.60271 21.404 2.79027 21.4667 2.99349C21.5295 3.19672 21.5483 3.41096 21.5219 3.62201L20.675 10.3971C20.6014 10.9783 20.3538 11.5236 19.9647 11.9614C19.5756 12.3993 19.0631 12.7093 18.4947 12.8507C19.1421 12.2324 19.5563 11.4096 19.6672 10.5213L20.2951 5.49798L19.3029 5.37396L18.675 10.3973C18.5864 11.0979 18.2455 11.7421 17.7161 12.2094C17.1867 12.6767 16.5052 12.935 15.799 12.936C15.4013 12.9364 15.0201 13.0946 14.7389 13.3758C14.4577 13.657 14.2995 14.0383 14.299 14.436V15.022C14.1385 14.965 13.9694 14.9359 13.799 14.936H3.79904C3.62868 14.9359 3.45958 14.965 3.29904 15.022V14.436C3.29919 14.3034 3.35192 14.1763 3.44565 14.0826C3.53939 13.9888 3.66648 13.9361 3.79904 13.936ZM17.299 16.936V14.436C17.2992 14.3034 17.3519 14.1763 17.4456 14.0826C17.5394 13.9888 17.6665 13.9361 17.799 13.936C18.7375 13.9359 19.6443 13.5964 20.3521 12.9801L19.8576 16.936H17.299ZM16.3847 13.936C16.3278 14.0965 16.2989 14.2656 16.299 14.436V16.936H15.299V14.436C15.2992 14.3034 15.3519 14.1763 15.4456 14.0826C15.5394 13.9888 15.6665 13.9361 15.799 13.936H16.3847ZM14.299 16.936H3.29904V16.436C3.29919 16.3034 3.35192 16.1763 3.44565 16.0826C3.53939 15.9888 3.66648 15.9361 3.79904 15.936H13.799C13.9316 15.9361 14.0587 15.9888 14.1524 16.0826C14.2461 16.1763 14.2989 16.3034 14.299 16.436V16.936ZM1.29904 14.436C1.29919 14.3034 1.35192 14.1763 1.44565 14.0826C1.53939 13.9888 1.66648 13.9361 1.79904 13.936H2.38473C2.32786 14.0965 2.29888 14.2656 2.29904 14.436V16.936H1.29904V14.436ZM1.94866 29.7307C1.93325 29.7974 1.89254 29.8557 1.8351 29.8931C1.77765 29.9305 1.70794 29.9441 1.64062 29.9312C1.5733 29.9183 1.51362 29.8798 1.47411 29.8237C1.43461 29.7677 1.41837 29.6985 1.4288 29.6308L3.22798 17.936H4.67053L1.94866 29.7307ZM7.32217 29.7307C7.30675 29.7974 7.26604 29.8557 7.2086 29.8931C7.15115 29.9305 7.08144 29.9441 7.01412 29.9312C6.9468 29.9183 6.88712 29.8798 6.84761 29.8237C6.80811 29.7677 6.79187 29.6985 6.8023 29.6308L8.60148 17.936H10.044L7.32217 29.7307ZM17.2958 29.6308C17.3062 29.6986 17.2899 29.7677 17.2504 29.8237C17.2109 29.8797 17.1512 29.9183 17.0839 29.9312C17.0166 29.9441 16.9469 29.9304 16.8895 29.893C16.832 29.8556 16.7913 29.7974 16.7759 29.7307L14.054 17.936H15.4966L17.2958 29.6308ZM21.235 29.8435C21.2031 29.8807 21.1615 29.9083 21.1149 29.9233C21.0682 29.9383 21.0183 29.94 20.9707 29.9283C20.9232 29.9166 20.8798 29.8919 20.8454 29.857C20.811 29.8221 20.7869 29.7784 20.7759 29.7307L18.054 17.936H19.4966L21.2958 29.6308C21.3018 29.6686 21.2995 29.7072 21.289 29.7439C21.2785 29.7807 21.2601 29.8147 21.235 29.8435H21.235Z"/>
</mask>
<path d="M20.7951 17.498L22.5142 3.74606C22.5581 3.39431 22.5268 3.03724 22.4222 2.69853C22.3176 2.35982 22.1422 2.04723 21.9076 1.78148C21.673 1.51573 21.3846 1.30291 21.0615 1.15714C20.7384 1.01137 20.3879 0.93598 20.0335 0.935974H13.185C12.6765 0.937604 12.1804 1.09356 11.7625 1.38322C11.3445 1.67288 11.0243 2.08259 10.8442 2.55816L7.65777 11.0553C7.44901 11.6066 7.07779 12.0816 6.59322 12.4175C6.10865 12.7533 5.53355 12.9341 4.944 12.936H1.79904C1.40136 12.9364 1.02009 13.0946 0.738884 13.3758C0.457678 13.657 0.299497 14.0383 0.299042 14.436V17.436C0.29904 17.5016 0.311971 17.5666 0.337098 17.6273C0.362225 17.688 0.399054 17.7431 0.445484 17.7895C0.491914 17.8359 0.547034 17.8728 0.607697 17.8979C0.668361 17.923 0.73338 17.936 0.799041 17.936H2.21625L0.44043 29.4787C0.390648 29.8023 0.468237 30.1325 0.656886 30.4C0.845534 30.6675 1.13055 30.8515 1.45202 30.9132C1.77349 30.975 2.10637 30.9097 2.3807 30.7311C2.65502 30.5525 2.84942 30.2745 2.92303 29.9555L5.69678 17.936H7.58975L5.81393 29.4787C5.76414 29.8023 5.84172 30.1325 6.03037 30.4C6.21902 30.6676 6.50404 30.8515 6.82551 30.9133C7.14699 30.975 7.47988 30.9097 7.75421 30.7311C8.02854 30.5525 8.22293 30.2745 8.29653 29.9555L11.0703 17.936H13.0278L15.8015 29.9555C15.8751 30.2745 16.0695 30.5525 16.3438 30.7311C16.6182 30.9097 16.9511 30.975 17.2725 30.9133C17.594 30.8515 17.879 30.6676 18.0677 30.4C18.2563 30.1325 18.3339 29.8023 18.2841 29.4788L16.5083 17.936H17.0278L19.8015 29.9555C19.8751 30.2745 20.0695 30.5525 20.3438 30.7311C20.6182 30.9097 20.951 30.975 21.2725 30.9133C21.594 30.8515 21.879 30.6676 22.0677 30.4C22.2563 30.1325 22.3339 29.8023 22.2841 29.4788L20.5016 17.8926C20.5804 17.8577 20.6489 17.8031 20.7003 17.7339C20.7518 17.6648 20.7844 17.5835 20.7951 17.498ZM3.79904 13.936H4.944C5.73696 13.9334 6.51049 13.6902 7.16225 13.2386C7.81401 12.7869 8.31331 12.148 8.59411 11.4064L11.7805 2.9093C11.8886 2.62395 12.0807 2.37812 12.3315 2.20432C12.5823 2.03052 12.8799 1.93695 13.185 1.93597H20.0335C20.2461 1.93598 20.4564 1.98121 20.6503 2.06867C20.8442 2.15613 21.0172 2.28382 21.158 2.44327C21.2987 2.60271 21.404 2.79027 21.4667 2.99349C21.5295 3.19672 21.5483 3.41096 21.5219 3.62201L20.675 10.3971C20.6014 10.9783 20.3538 11.5236 19.9647 11.9614C19.5756 12.3993 19.0631 12.7093 18.4947 12.8507C19.1421 12.2324 19.5563 11.4096 19.6672 10.5213L20.2951 5.49798L19.3029 5.37396L18.675 10.3973C18.5864 11.0979 18.2455 11.7421 17.7161 12.2094C17.1867 12.6767 16.5052 12.935 15.799 12.936C15.4013 12.9364 15.0201 13.0946 14.7389 13.3758C14.4577 13.657 14.2995 14.0383 14.299 14.436V15.022C14.1385 14.965 13.9694 14.9359 13.799 14.936H3.79904C3.62868 14.9359 3.45958 14.965 3.29904 15.022V14.436C3.29919 14.3034 3.35192 14.1763 3.44565 14.0826C3.53939 13.9888 3.66648 13.9361 3.79904 13.936ZM17.299 16.936V14.436C17.2992 14.3034 17.3519 14.1763 17.4456 14.0826C17.5394 13.9888 17.6665 13.9361 17.799 13.936C18.7375 13.9359 19.6443 13.5964 20.3521 12.9801L19.8576 16.936H17.299ZM16.3847 13.936C16.3278 14.0965 16.2989 14.2656 16.299 14.436V16.936H15.299V14.436C15.2992 14.3034 15.3519 14.1763 15.4456 14.0826C15.5394 13.9888 15.6665 13.9361 15.799 13.936H16.3847ZM14.299 16.936H3.29904V16.436C3.29919 16.3034 3.35192 16.1763 3.44565 16.0826C3.53939 15.9888 3.66648 15.9361 3.79904 15.936H13.799C13.9316 15.9361 14.0587 15.9888 14.1524 16.0826C14.2461 16.1763 14.2989 16.3034 14.299 16.436V16.936ZM1.29904 14.436C1.29919 14.3034 1.35192 14.1763 1.44565 14.0826C1.53939 13.9888 1.66648 13.9361 1.79904 13.936H2.38473C2.32786 14.0965 2.29888 14.2656 2.29904 14.436V16.936H1.29904V14.436ZM1.94866 29.7307C1.93325 29.7974 1.89254 29.8557 1.8351 29.8931C1.77765 29.9305 1.70794 29.9441 1.64062 29.9312C1.5733 29.9183 1.51362 29.8798 1.47411 29.8237C1.43461 29.7677 1.41837 29.6985 1.4288 29.6308L3.22798 17.936H4.67053L1.94866 29.7307ZM7.32217 29.7307C7.30675 29.7974 7.26604 29.8557 7.2086 29.8931C7.15115 29.9305 7.08144 29.9441 7.01412 29.9312C6.9468 29.9183 6.88712 29.8798 6.84761 29.8237C6.80811 29.7677 6.79187 29.6985 6.8023 29.6308L8.60148 17.936H10.044L7.32217 29.7307ZM17.2958 29.6308C17.3062 29.6986 17.2899 29.7677 17.2504 29.8237C17.2109 29.8797 17.1512 29.9183 17.0839 29.9312C17.0166 29.9441 16.9469 29.9304 16.8895 29.893C16.832 29.8556 16.7913 29.7974 16.7759 29.7307L14.054 17.936H15.4966L17.2958 29.6308ZM21.235 29.8435C21.2031 29.8807 21.1615 29.9083 21.1149 29.9233C21.0682 29.9383 21.0183 29.94 20.9707 29.9283C20.9232 29.9166 20.8798 29.8919 20.8454 29.857C20.811 29.8221 20.7869 29.7784 20.7759 29.7307L18.054 17.936H19.4966L21.2958 29.6308C21.3018 29.6686 21.2995 29.7072 21.289 29.7439C21.2785 29.7807 21.2601 29.8147 21.235 29.8435H21.235Z" fill="#808080"/>
<path d="M20.7951 17.498L22.5142 3.74606C22.5581 3.39431 22.5268 3.03724 22.4222 2.69853C22.3176 2.35982 22.1422 2.04723 21.9076 1.78148C21.673 1.51573 21.3846 1.30291 21.0615 1.15714C20.7384 1.01137 20.3879 0.93598 20.0335 0.935974H13.185C12.6765 0.937604 12.1804 1.09356 11.7625 1.38322C11.3445 1.67288 11.0243 2.08259 10.8442 2.55816L7.65777 11.0553C7.44901 11.6066 7.07779 12.0816 6.59322 12.4175C6.10865 12.7533 5.53355 12.9341 4.944 12.936H1.79904C1.40136 12.9364 1.02009 13.0946 0.738884 13.3758C0.457678 13.657 0.299497 14.0383 0.299042 14.436V17.436C0.29904 17.5016 0.311971 17.5666 0.337098 17.6273C0.362225 17.688 0.399054 17.7431 0.445484 17.7895C0.491914 17.8359 0.547034 17.8728 0.607697 17.8979C0.668361 17.923 0.73338 17.936 0.799041 17.936H2.21625L0.44043 29.4787C0.390648 29.8023 0.468237 30.1325 0.656886 30.4C0.845534 30.6675 1.13055 30.8515 1.45202 30.9132C1.77349 30.975 2.10637 30.9097 2.3807 30.7311C2.65502 30.5525 2.84942 30.2745 2.92303 29.9555L5.69678 17.936H7.58975L5.81393 29.4787C5.76414 29.8023 5.84172 30.1325 6.03037 30.4C6.21902 30.6676 6.50404 30.8515 6.82551 30.9133C7.14699 30.975 7.47988 30.9097 7.75421 30.7311C8.02854 30.5525 8.22293 30.2745 8.29653 29.9555L11.0703 17.936H13.0278L15.8015 29.9555C15.8751 30.2745 16.0695 30.5525 16.3438 30.7311C16.6182 30.9097 16.9511 30.975 17.2725 30.9133C17.594 30.8515 17.879 30.6676 18.0677 30.4C18.2563 30.1325 18.3339 29.8023 18.2841 29.4788L16.5083 17.936H17.0278L19.8015 29.9555C19.8751 30.2745 20.0695 30.5525 20.3438 30.7311C20.6182 30.9097 20.951 30.975 21.2725 30.9133C21.594 30.8515 21.879 30.6676 22.0677 30.4C22.2563 30.1325 22.3339 29.8023 22.2841 29.4788L20.5016 17.8926C20.5804 17.8577 20.6489 17.8031 20.7003 17.7339C20.7518 17.6648 20.7844 17.5835 20.7951 17.498ZM3.79904 13.936H4.944C5.73696 13.9334 6.51049 13.6902 7.16225 13.2386C7.81401 12.7869 8.31331 12.148 8.59411 11.4064L11.7805 2.9093C11.8886 2.62395 12.0807 2.37812 12.3315 2.20432C12.5823 2.03052 12.8799 1.93695 13.185 1.93597H20.0335C20.2461 1.93598 20.4564 1.98121 20.6503 2.06867C20.8442 2.15613 21.0172 2.28382 21.158 2.44327C21.2987 2.60271 21.404 2.79027 21.4667 2.99349C21.5295 3.19672 21.5483 3.41096 21.5219 3.62201L20.675 10.3971C20.6014 10.9783 20.3538 11.5236 19.9647 11.9614C19.5756 12.3993 19.0631 12.7093 18.4947 12.8507C19.1421 12.2324 19.5563 11.4096 19.6672 10.5213L20.2951 5.49798L19.3029 5.37396L18.675 10.3973C18.5864 11.0979 18.2455 11.7421 17.7161 12.2094C17.1867 12.6767 16.5052 12.935 15.799 12.936C15.4013 12.9364 15.0201 13.0946 14.7389 13.3758C14.4577 13.657 14.2995 14.0383 14.299 14.436V15.022C14.1385 14.965 13.9694 14.9359 13.799 14.936H3.79904C3.62868 14.9359 3.45958 14.965 3.29904 15.022V14.436C3.29919 14.3034 3.35192 14.1763 3.44565 14.0826C3.53939 13.9888 3.66648 13.9361 3.79904 13.936ZM17.299 16.936V14.436C17.2992 14.3034 17.3519 14.1763 17.4456 14.0826C17.5394 13.9888 17.6665 13.9361 17.799 13.936C18.7375 13.9359 19.6443 13.5964 20.3521 12.9801L19.8576 16.936H17.299ZM16.3847 13.936C16.3278 14.0965 16.2989 14.2656 16.299 14.436V16.936H15.299V14.436C15.2992 14.3034 15.3519 14.1763 15.4456 14.0826C15.5394 13.9888 15.6665 13.9361 15.799 13.936H16.3847ZM14.299 16.936H3.29904V16.436C3.29919 16.3034 3.35192 16.1763 3.44565 16.0826C3.53939 15.9888 3.66648 15.9361 3.79904 15.936H13.799C13.9316 15.9361 14.0587 15.9888 14.1524 16.0826C14.2461 16.1763 14.2989 16.3034 14.299 16.436V16.936ZM1.29904 14.436C1.29919 14.3034 1.35192 14.1763 1.44565 14.0826C1.53939 13.9888 1.66648 13.9361 1.79904 13.936H2.38473C2.32786 14.0965 2.29888 14.2656 2.29904 14.436V16.936H1.29904V14.436ZM1.94866 29.7307C1.93325 29.7974 1.89254 29.8557 1.8351 29.8931C1.77765 29.9305 1.70794 29.9441 1.64062 29.9312C1.5733 29.9183 1.51362 29.8798 1.47411 29.8237C1.43461 29.7677 1.41837 29.6985 1.4288 29.6308L3.22798 17.936H4.67053L1.94866 29.7307ZM7.32217 29.7307C7.30675 29.7974 7.26604 29.8557 7.2086 29.8931C7.15115 29.9305 7.08144 29.9441 7.01412 29.9312C6.9468 29.9183 6.88712 29.8798 6.84761 29.8237C6.80811 29.7677 6.79187 29.6985 6.8023 29.6308L8.60148 17.936H10.044L7.32217 29.7307ZM17.2958 29.6308C17.3062 29.6986 17.2899 29.7677 17.2504 29.8237C17.2109 29.8797 17.1512 29.9183 17.0839 29.9312C17.0166 29.9441 16.9469 29.9304 16.8895 29.893C16.832 29.8556 16.7913 29.7974 16.7759 29.7307L14.054 17.936H15.4966L17.2958 29.6308ZM21.235 29.8435C21.2031 29.8807 21.1615 29.9083 21.1149 29.9233C21.0682 29.9383 21.0183 29.94 20.9707 29.9283C20.9232 29.9166 20.8798 29.8919 20.8454 29.857C20.811 29.8221 20.7869 29.7784 20.7759 29.7307L18.054 17.936H19.4966L21.2958 29.6308C21.3018 29.6686 21.2995 29.7072 21.289 29.7439C21.2785 29.7807 21.2601 29.8147 21.235 29.8435H21.235Z" stroke="#808080" stroke-width="0.2" mask="url(#path-1-outside-1)"/>
</svg>
