<svg width="24" height="30" viewBox="0 0 24 30" fill="none" xmlns="http://www.w3.org/2000/svg">
<path d="M22.8336 0.0397339H0.7083C0.379707 0.0397339 0.160645 0.258796 0.160645 0.587389V20.9602V25.1224V29.2845C0.160645 29.6131 0.379707 29.8322 0.7083 29.8322H22.8336C23.1622 29.8322 23.3812 29.6131 23.3812 29.2845V25.1224V20.9602V0.587389C23.3812 0.258796 23.1074 0.0397339 22.8336 0.0397339ZM12.2638 1.13504H22.2312V20.4125H12.2638V1.13504ZM12.2638 21.5078H16.0426V22.3841H18.3428V21.5078H22.2312V24.5747H12.2638V21.5078ZM11.1685 28.7369H1.25596V25.67H5.14431V26.5463H7.44446V25.67H11.1685V28.7369ZM11.1685 24.5747H1.25596V21.5078H5.14431V22.3841H7.44446V21.5078H11.1685V24.5747ZM11.1685 20.4125H1.25596V1.13504H11.1685V20.4125ZM12.2638 28.7369V25.67H16.0426V26.5463H18.3428V25.67H22.2312V28.7369H12.2638Z" fill="#808080" stroke="#808080" stroke-width="0.0342285" stroke-miterlimit="10"/>
<path d="M9.47077 9.45941C9.14217 9.45941 8.92311 9.67847 8.92311 10.0071V13.3478C8.92311 13.6764 9.14217 13.8954 9.47077 13.8954C9.79936 13.8954 10.0184 13.6764 10.0184 13.3478V10.0071C10.0184 9.73324 9.74459 9.45941 9.47077 9.45941Z" fill="#808080" stroke="#808080" stroke-width="0.0342285" stroke-miterlimit="10"/>
<path d="M14.0163 9.45941C13.6878 9.45941 13.4687 9.67847 13.4687 10.0071V13.3478C13.4687 13.6764 13.7425 13.8954 14.0163 13.8954C14.3449 13.8954 14.564 13.6764 14.564 13.3478V10.0071C14.564 9.67847 14.3449 9.45941 14.0163 9.45941Z" fill="#808080" stroke="#808080" stroke-width="0.0342285" stroke-miterlimit="10"/>
</svg>
