<svg width="31" height="31" viewBox="0 0 31 31" fill="none" xmlns="http://www.w3.org/2000/svg">
<path d="M30.2941 1.21089C29.9275 0.844334 29.335 0.844334 28.9684 1.21089L0.854906 29.3244C0.488347 29.691 0.488347 30.2835 0.854906 30.65C1.03772 30.8328 1.27772 30.9247 1.51771 30.9247C1.75771 30.9247 1.99677 30.8338 2.18052 30.65L30.2941 2.53651C30.6606 2.16995 30.6606 1.57745 30.2941 1.21089Z" fill="#808080"/>
<path d="M7.13986 0.946533C3.51738 0.946533 0.56897 3.89307 0.56897 7.51461C0.56897 11.1371 3.51738 14.0846 7.13986 14.0846C10.7614 14.0846 13.7089 11.138 13.7089 7.51461C13.7089 3.89307 10.7614 0.946533 7.13986 0.946533ZM7.13986 12.2105C4.5505 12.2105 2.44395 10.1049 2.44395 7.51554C2.44395 4.92806 4.5505 2.82246 7.13986 2.82246C9.72827 2.82246 11.8339 4.92806 11.8339 7.51554C11.8339 10.1049 9.72827 12.2105 7.13986 12.2105Z" fill="#808080"/>
<path d="M23.9884 17.7961C20.3669 17.7961 17.4194 20.7435 17.4194 24.3651C17.4194 27.9875 20.3669 30.936 23.9884 30.936C27.6109 30.936 30.5575 27.9875 30.5575 24.3651C30.5575 20.7435 27.61 17.7961 23.9884 17.7961ZM23.9884 29.061C21.4 29.061 19.2944 26.9544 19.2944 24.3651C19.2944 21.7766 21.4 19.671 23.9884 19.671C26.5769 19.671 28.6825 21.7766 28.6825 24.3651C28.6825 26.9544 26.5769 29.061 23.9884 29.061Z" fill="#808080"/>
</svg>
