<svg width="31" height="31" viewBox="0 0 31 31" fill="none" xmlns="http://www.w3.org/2000/svg">
<path d="M20.9889 1.68383C20.7026 1.64804 20.4373 1.85172 20.4015 2.14067L19.8752 6.3512C19.8394 6.63962 20.0436 6.90277 20.3321 6.93856C20.3542 6.9412 20.3763 6.94277 20.3978 6.94277C20.6594 6.94277 20.8863 6.74804 20.9194 6.48172L21.4457 2.2712C21.4821 1.98277 21.2773 1.71962 20.9889 1.68383Z" fill="#808080"/>
<path d="M22.5026 1.67963C22.2121 1.67963 21.9763 1.91489 21.9763 2.20594V6.41647C21.9763 6.70752 22.2121 6.94278 22.5026 6.94278C22.7931 6.94278 23.0289 6.70752 23.0289 6.41647V2.20594C23.0289 1.91489 22.7931 1.67963 22.5026 1.67963Z" fill="#808080"/>
<path d="M25.13 6.35124L24.6036 2.14071C24.5679 1.85176 24.3005 1.64755 24.0163 1.68387C23.7279 1.71966 23.5231 1.98282 23.5594 2.27124L24.0857 6.48176C24.1189 6.74808 24.3457 6.94282 24.6073 6.94282C24.6294 6.94282 24.651 6.94124 24.6731 6.93861C24.9615 6.90282 25.1663 6.63966 25.13 6.35124Z" fill="#808080"/>
<path d="M26.0068 11.6797C26.1879 11.2997 26.2358 10.8665 26.1331 10.4428C25.9631 9.74123 25.3479 9.2065 24.6084 9.07755V8.52176H27.891L26.0863 0.100708H18.9189L17.1147 8.52176H20.3973V9.07808C19.6573 9.20702 19.0426 9.74176 18.8726 10.4433C18.77 10.867 18.8173 11.3002 18.9989 11.6802H0.923645V16.9433V17.996V22.2065V23.2591V28.5223H2.50259V30.1012H7.23943V28.5223H24.6079V30.1012H29.3447V28.5223H30.9236V23.2586V22.206V17.9954V16.9428V11.6797H26.0068ZM18.4168 7.46913L19.7705 1.15334H25.2352L26.5889 7.46913H24.6079H20.3973H18.4168ZM20.04 11.376C19.8868 11.1812 19.8358 10.9381 19.8952 10.6907C19.9784 10.3491 20.3347 10.1007 20.7426 10.1007H20.8742C21.1915 10.1007 21.45 9.84281 21.45 9.52492V8.52176H23.5552V9.52492C23.5552 9.84281 23.8136 10.1007 24.131 10.1007H24.2626C24.6705 10.1007 25.0268 10.3491 25.11 10.6907C25.1694 10.9381 25.1184 11.1812 24.9652 11.376C24.8136 11.5686 24.5868 11.6797 24.3447 11.6797H20.6605C20.4184 11.6797 20.1915 11.5686 20.04 11.376ZM6.1868 29.0481H3.55522V28.5218H6.1868V29.0481ZM28.2921 29.0481H25.6605V28.5218H28.2921V29.0481ZM29.871 27.4691H29.3447H24.6079H7.23943H2.50259H1.97628V23.2586H29.871V27.4691ZM29.871 22.206H1.97628V17.9954H29.871V22.206ZM1.97628 16.9428V12.7323H20.6605H24.3447H29.871V16.9428H1.97628Z" fill="#808080"/>
<path d="M4.08154 25.8902H8.29206C8.58259 25.8902 8.81838 25.6549 8.81838 25.3639C8.81838 25.0728 8.58259 24.8376 8.29206 24.8376H4.08154C3.79101 24.8376 3.55522 25.0728 3.55522 25.3639C3.55522 25.6549 3.79101 25.8902 4.08154 25.8902Z" fill="#808080"/>
<path d="M23.5552 25.8902H27.7657C28.0563 25.8902 28.2921 25.6549 28.2921 25.3639C28.2921 25.0728 28.0563 24.8376 27.7657 24.8376H23.5552C23.2647 24.8376 23.0289 25.0728 23.0289 25.3639C23.0289 25.6549 23.2647 25.8902 23.5552 25.8902Z" fill="#808080"/>
<path d="M4.08154 20.627H8.29206C8.58259 20.627 8.81838 20.3918 8.81838 20.1007C8.81838 19.8097 8.58259 19.5744 8.29206 19.5744H4.08154C3.79101 19.5744 3.55522 19.8097 3.55522 20.1007C3.55522 20.3918 3.79101 20.627 4.08154 20.627Z" fill="#808080"/>
<path d="M23.5552 20.627H27.7657C28.0563 20.627 28.2921 20.3918 28.2921 20.1007C28.2921 19.8097 28.0563 19.5744 27.7657 19.5744H23.5552C23.2647 19.5744 23.0289 19.8097 23.0289 20.1007C23.0289 20.3918 23.2647 20.627 23.5552 20.627Z" fill="#808080"/>
<path d="M8.29206 14.3112H4.08154C3.79101 14.3112 3.55522 14.5465 3.55522 14.8375C3.55522 15.1286 3.79101 15.3638 4.08154 15.3638H8.29206C8.58259 15.3638 8.81838 15.1286 8.81838 14.8375C8.81838 14.5465 8.58259 14.3112 8.29206 14.3112Z" fill="#808080"/>
<path d="M27.7657 14.3112H23.5552C23.2647 14.3112 23.0289 14.5465 23.0289 14.8375C23.0289 15.1286 23.2647 15.3638 23.5552 15.3638H27.7657C28.0563 15.3638 28.2921 15.1286 28.2921 14.8375C28.2921 14.5465 28.0563 14.3112 27.7657 14.3112Z" fill="#808080"/>
</svg>
