<svg width="27" height="32" viewBox="0 0 27 32" fill="none" xmlns="http://www.w3.org/2000/svg">
<path d="M4.19565 22.8217C4.28354 22.9096 4.39487 22.9506 4.50619 22.9506C4.61752 22.9506 4.72885 22.9096 4.81674 22.8217L5.11557 22.5287L5.4144 22.8217C5.50229 22.9096 5.61362 22.9506 5.72494 22.9506C5.83627 22.9506 5.9476 22.9096 6.03549 22.8217C6.20541 22.6518 6.20541 22.3705 6.03549 22.2006L5.73666 21.9018L6.03549 21.6029C6.20541 21.433 6.20541 21.1518 6.03549 20.9818C5.86557 20.8119 5.58432 20.8119 5.4144 20.9818L5.11557 21.2748L4.81674 20.9818C4.64682 20.8119 4.36557 20.8119 4.19565 20.9818C4.02573 21.1518 4.02573 21.433 4.19565 21.6029L4.49448 21.9018L4.19565 22.2006C4.02573 22.3705 4.02573 22.6459 4.19565 22.8217Z" fill="#808080" stroke="#808080" stroke-width="0.410156" stroke-miterlimit="10"/>
<path d="M12.6859 15.5268C12.7738 15.6147 12.8851 15.6557 12.9964 15.6557C13.1078 15.6557 13.2191 15.6147 13.307 15.5268L13.6058 15.2279L13.9046 15.5268C13.9925 15.6147 14.1039 15.6557 14.2152 15.6557C14.3265 15.6557 14.4378 15.6147 14.5257 15.5268C14.6956 15.3568 14.6956 15.0756 14.5257 14.9057L14.2269 14.6068L14.5257 14.308C14.6956 14.1381 14.6956 13.8568 14.5257 13.6869C14.3558 13.517 14.0746 13.517 13.9046 13.6869L13.6058 13.9799L13.307 13.6811C13.1371 13.5111 12.8558 13.5111 12.6859 13.6811C12.516 13.851 12.516 14.1322 12.6859 14.3022L12.9847 14.601L12.6859 14.8998C12.516 15.0815 12.516 15.3568 12.6859 15.5268Z" fill="#808080" stroke="#808080" stroke-width="0.410156" stroke-miterlimit="10"/>
<path d="M24.6624 1.10098H18.4456C18.1468 1.10098 17.8539 1.22989 17.6195 1.4584C17.5785 1.49942 17.5257 1.49942 17.4847 1.4584C17.2503 1.22989 16.9574 1.10098 16.6585 1.10098H10.4359C10.1371 1.10098 9.84409 1.22989 9.60971 1.4584C9.5687 1.49942 9.51596 1.49942 9.47495 1.4584C9.24057 1.22989 8.9476 1.10098 8.64877 1.10098H2.43198C1.71127 1.10098 1.12534 1.80997 1.12534 2.67715V6.1459C1.12534 6.38614 1.2894 6.58536 1.48862 6.58536C1.68784 6.58536 1.8519 6.38614 1.8519 6.1459V2.67715C1.8519 2.29044 2.10971 1.97989 2.43198 1.97989H8.64877C8.78354 1.97989 8.91245 2.03262 9.01205 2.13809C9.3226 2.44864 9.76205 2.44864 10.0726 2.13809C10.1781 2.03262 10.3011 1.97989 10.4359 1.97989H16.6527C16.7874 1.97989 16.9164 2.03262 17.016 2.13809C17.3265 2.44864 17.766 2.44864 18.0765 2.13809C18.182 2.03262 18.305 1.97989 18.4398 1.97989H24.6566C24.973 1.97989 25.2367 2.29044 25.2367 2.67715V26.9936C25.0609 26.8881 24.8675 26.8295 24.6566 26.8295H21.2874C21.0882 26.8295 20.9242 27.0287 20.9242 27.269C20.9242 27.5092 21.0882 27.7084 21.2874 27.7084H24.6566C24.973 27.7084 25.2367 28.019 25.2367 28.4057V28.9565V29.5248C25.2367 29.9115 24.9789 30.2221 24.6566 30.2221H18.4456C18.3109 30.2221 18.182 30.1693 18.0824 30.0639C17.7718 29.7533 17.3324 29.7533 17.0218 30.0639C16.9164 30.1693 16.7933 30.2221 16.6585 30.2221H10.4359C10.3011 30.2221 10.1722 30.1693 10.0726 30.0639C9.76205 29.7533 9.3226 29.7533 9.01205 30.0639C8.90659 30.1693 8.78354 30.2221 8.64877 30.2221H2.43198C2.11557 30.2221 1.8519 29.9115 1.8519 29.5248V28.9565V28.4057C1.8519 28.019 2.10971 27.7084 2.43198 27.7084H8.64877C8.78354 27.7084 8.91245 27.7611 9.01205 27.8666C9.3226 28.1772 9.76205 28.1772 10.0726 27.8666C10.1781 27.7611 10.3011 27.7084 10.4359 27.7084H16.6527C16.7874 27.7084 16.9164 27.7611 17.016 27.8666C17.3265 28.1772 17.766 28.1772 18.0765 27.8666C18.182 27.7611 18.305 27.7084 18.4398 27.7084H19.8519C20.0511 27.7084 20.2152 27.5092 20.2152 27.269C20.2152 27.0287 20.0511 26.8295 19.8519 26.8295H18.4398C18.141 26.8295 17.848 26.9584 17.6136 27.1869C17.5726 27.2279 17.5199 27.2279 17.4789 27.1869C17.2445 26.9584 16.9515 26.8295 16.6527 26.8295H10.4359C10.1371 26.8295 9.84409 26.9584 9.60971 27.1869C9.5687 27.2279 9.51596 27.2279 9.47495 27.1869C9.24057 26.9584 8.9476 26.8295 8.64877 26.8295H2.43198C2.2269 26.8295 2.02768 26.8881 1.8519 26.9936V7.82755C1.8519 7.58731 1.68784 7.38809 1.48862 7.38809C1.2894 7.38809 1.12534 7.58731 1.12534 7.82755V28.4057V28.9565V29.5248C1.12534 30.392 1.71127 31.101 2.43198 31.101H8.64877C8.9476 31.101 9.24057 30.9721 9.47495 30.7436C9.51596 30.7025 9.5687 30.7025 9.60971 30.7436C9.84409 30.9721 10.1371 31.101 10.4359 31.101H16.6527C16.9515 31.101 17.2445 30.9721 17.4789 30.7436C17.5199 30.7025 17.5726 30.7025 17.6136 30.7436C17.848 30.9721 18.141 31.101 18.4398 31.101H24.6566C25.3773 31.101 25.9632 30.392 25.9632 29.5248V28.9565V28.4057V2.67715C25.9691 1.80997 25.3831 1.10098 24.6624 1.10098Z" fill="#808080" stroke="#808080" stroke-width="0.410156" stroke-miterlimit="10"/>
<path d="M4.19565 8.26114C4.28354 8.34903 4.39487 8.39004 4.50619 8.39004C4.61752 8.39004 4.72885 8.34903 4.81674 8.26114L5.11557 7.96231L5.4144 8.26114C5.50229 8.34903 5.61362 8.39004 5.72494 8.39004C5.83627 8.39004 5.9476 8.34903 6.03549 8.26114C6.20541 8.09122 6.20541 7.80997 6.03549 7.64004L5.73666 7.34122L6.03549 7.04239C6.20541 6.87247 6.20541 6.59122 6.03549 6.4213C5.86557 6.25137 5.58432 6.25137 5.4144 6.4213L5.11557 6.72012L4.81674 6.4213C4.64682 6.25137 4.36557 6.25137 4.19565 6.4213C4.02573 6.59122 4.02573 6.87247 4.19565 7.04239L4.49448 7.34122L4.19565 7.64004C4.02573 7.80997 4.02573 8.08536 4.19565 8.26114Z" fill="#808080" stroke="#808080" stroke-width="0.410156" stroke-miterlimit="10"/>
<path d="M4.19565 15.5268C4.28354 15.6147 4.39487 15.6557 4.50619 15.6557C4.61752 15.6557 4.72885 15.6147 4.81674 15.5268L5.11557 15.2279L5.4144 15.5268C5.50229 15.6147 5.61362 15.6557 5.72494 15.6557C5.83627 15.6557 5.9476 15.6147 6.03549 15.5268C6.20541 15.3568 6.20541 15.0756 6.03549 14.9057L5.73666 14.6068L6.03549 14.308C6.20541 14.1381 6.20541 13.8568 6.03549 13.6869C5.86557 13.517 5.58432 13.517 5.4144 13.6869L5.10971 13.9916L4.81088 13.6928C4.64096 13.5229 4.35971 13.5229 4.18979 13.6928C4.01987 13.8627 4.01987 14.144 4.18979 14.3139L4.48862 14.6127L4.18979 14.9115C4.02573 15.0815 4.02573 15.3568 4.19565 15.5268Z" fill="#808080" stroke="#808080" stroke-width="0.410156" stroke-miterlimit="10"/>
<path d="M12.6859 8.26114C12.7738 8.34903 12.8851 8.39004 12.9964 8.39004C13.1078 8.39004 13.2191 8.34903 13.307 8.26114L13.6058 7.96231L13.9046 8.26114C13.9925 8.34903 14.1039 8.39004 14.2152 8.39004C14.3265 8.39004 14.4378 8.34903 14.5257 8.26114C14.6956 8.09122 14.6956 7.80997 14.5257 7.64004L14.2269 7.34122L14.5257 7.04239C14.6956 6.87247 14.6956 6.59122 14.5257 6.4213C14.3558 6.25137 14.0746 6.25137 13.9046 6.4213L13.6058 6.72012L13.307 6.4213C13.1371 6.25137 12.8558 6.25137 12.6859 6.4213C12.516 6.59122 12.516 6.87247 12.6859 7.04239L12.9847 7.34122L12.6859 7.64004C12.516 7.80997 12.516 8.08536 12.6859 8.26114Z" fill="#808080" stroke="#808080" stroke-width="0.410156" stroke-miterlimit="10"/>
<path d="M21.182 15.5268C21.2699 15.6147 21.3812 15.6557 21.4925 15.6557C21.6039 15.6557 21.7152 15.6147 21.8031 15.5268L22.096 15.2279L22.389 15.5268C22.4769 15.6147 22.5882 15.6557 22.6996 15.6557C22.8109 15.6557 22.9222 15.6147 23.0101 15.5268C23.18 15.3568 23.18 15.0756 23.0101 14.9057L22.7113 14.6068L23.0101 14.308C23.18 14.1381 23.18 13.8568 23.0101 13.6869C22.8402 13.517 22.5589 13.517 22.389 13.6869L22.096 13.9857L21.8031 13.6869C21.6331 13.517 21.3519 13.517 21.182 13.6869C21.0121 13.8568 21.0121 14.1381 21.182 14.308L21.4808 14.6068L21.182 14.9057C21.0121 15.0815 21.0121 15.3568 21.182 15.5268Z" fill="#808080" stroke="#808080" stroke-width="0.410156" stroke-miterlimit="10"/>
<path d="M21.182 22.8217C21.2699 22.9096 21.3812 22.9506 21.4925 22.9506C21.6039 22.9506 21.7152 22.9096 21.8031 22.8217L22.096 22.5287L22.389 22.8217C22.4769 22.9096 22.5882 22.9506 22.6996 22.9506C22.8109 22.9506 22.9222 22.9096 23.0101 22.8217C23.18 22.6518 23.18 22.3705 23.0101 22.2006L22.7113 21.9018L23.0101 21.6029C23.18 21.433 23.18 21.1518 23.0101 20.9818C22.8402 20.8119 22.5589 20.8119 22.389 20.9818L22.096 21.2748L21.8031 20.9818C21.6331 20.8119 21.3519 20.8119 21.182 20.9818C21.0121 21.1518 21.0121 21.433 21.182 21.6029L21.4808 21.9018L21.182 22.2006C21.0121 22.3705 21.0121 22.6459 21.182 22.8217Z" fill="#808080" stroke="#808080" stroke-width="0.410156" stroke-miterlimit="10"/>
<path d="M12.6859 22.8217C12.7738 22.9096 12.8851 22.9506 12.9964 22.9506C13.1078 22.9506 13.2191 22.9096 13.307 22.8217L13.6058 22.5229L13.9046 22.8217C13.9925 22.9096 14.1039 22.9506 14.2152 22.9506C14.3265 22.9506 14.4378 22.9096 14.5257 22.8217C14.6956 22.6518 14.6956 22.3705 14.5257 22.2006L14.2269 21.9018L14.5257 21.6029C14.6956 21.433 14.6956 21.1518 14.5257 20.9818C14.3558 20.8119 14.0746 20.8119 13.9046 20.9818L13.6058 21.2807L13.307 20.9818C13.1371 20.8119 12.8558 20.8119 12.6859 20.9818C12.516 21.1518 12.516 21.433 12.6859 21.6029L12.9847 21.9018L12.6859 22.2006C12.516 22.3705 12.516 22.6459 12.6859 22.8217Z" fill="#808080" stroke="#808080" stroke-width="0.410156" stroke-miterlimit="10"/>
<path d="M21.182 8.26114C21.2699 8.34903 21.3812 8.39004 21.4925 8.39004C21.6039 8.39004 21.7152 8.34903 21.8031 8.26114L22.096 7.96231L22.389 8.26114C22.4769 8.34903 22.5882 8.39004 22.6996 8.39004C22.8109 8.39004 22.9222 8.34903 23.0101 8.26114C23.18 8.09122 23.18 7.80997 23.0101 7.64004L22.7113 7.34122L23.0101 7.04239C23.18 6.87247 23.18 6.59122 23.0101 6.4213C22.8402 6.25137 22.5589 6.25137 22.389 6.4213L22.096 6.72012L21.8031 6.4213C21.6331 6.25137 21.3519 6.25137 21.182 6.4213C21.0121 6.59122 21.0121 6.87247 21.182 7.04239L21.4808 7.34122L21.182 7.64004C21.0121 7.80997 21.0121 8.08536 21.182 8.26114Z" fill="#808080" stroke="#808080" stroke-width="0.410156" stroke-miterlimit="10"/>
<path d="M1.8519 5.89981H1.12534V8.61856H1.8519V5.89981Z" fill="#808080" stroke="#808080" stroke-width="0.410156" stroke-miterlimit="10"/>
<path d="M21.6039 26.8295H19.6527V27.7084H21.6039V26.8295Z" fill="#808080" stroke="#808080" stroke-width="0.410156" stroke-miterlimit="10"/>
</svg>
