<svg width="26" height="34" viewBox="0 0 26 34" fill="none" xmlns="http://www.w3.org/2000/svg">
<path d="M6.63755 20.5973C6.61963 20.6446 6.61186 20.6951 6.61474 20.7456V22.7194C6.61474 22.82 6.65469 22.9164 6.72581 22.9876C6.79692 23.0587 6.89338 23.0986 6.99395 23.0986C7.09453 23.0986 7.19098 23.0587 7.2621 22.9876C7.33322 22.9164 7.37317 22.82 7.37317 22.7194V20.7456C7.37604 20.6951 7.36827 20.6446 7.35036 20.5973C7.33226 20.5495 7.30422 20.5061 7.26808 20.47C7.23195 20.4338 7.18856 20.4058 7.14077 20.3877C7.09394 20.37 7.04394 20.3622 6.99395 20.3648C6.94397 20.3622 6.89397 20.37 6.84714 20.3877C6.79935 20.4058 6.75596 20.4338 6.71982 20.47C6.68369 20.5061 6.65565 20.5495 6.63755 20.5973Z" fill="#808080" stroke="#808080" stroke-width="0.1"/>
<path d="M19.501 23.0986L19.5042 23.0487L19.5011 23.0986C19.5521 23.1017 19.6032 23.094 19.651 23.0759C19.6988 23.0577 19.7422 23.0297 19.7783 22.9936C19.8145 22.9574 19.8425 22.914 19.8606 22.8663C19.8785 22.819 19.8863 22.7684 19.8834 22.718V20.7441C19.8834 20.6436 19.8435 20.5471 19.7724 20.476C19.7012 20.4049 19.6048 20.3649 19.5042 20.3649C19.4036 20.3649 19.3072 20.4049 19.2361 20.476C19.1649 20.5471 19.125 20.6436 19.125 20.7441V22.7194H19.1249L19.1251 22.7227C19.1315 22.8203 19.1731 22.9122 19.2423 22.9814C19.3114 23.0506 19.4034 23.0922 19.501 23.0986Z" fill="#808080" stroke="#808080" stroke-width="0.1"/>
<path d="M1.59476 15.8876V15.8874L1.59139 15.8877C1.44266 15.8977 1.30262 15.9614 1.19722 16.0668C1.09181 16.1722 1.02819 16.3122 1.01813 16.4609L1.01806 16.4609L1.01802 16.4636C1.01695 16.5397 1.03116 16.6153 1.0598 16.6858C1.08844 16.7564 1.13093 16.8205 1.18477 16.8743C1.2386 16.9281 1.30269 16.9706 1.37323 16.9993C1.42807 17.0215 1.48595 17.0351 1.54476 17.0395V32.9252H1.54465L1.54488 32.9286C1.55494 33.0773 1.61856 33.2173 1.72397 33.3227C1.82937 33.4281 1.96941 33.4918 2.11814 33.5018L2.11811 33.5023L2.12488 33.5018C2.27361 33.4918 2.41365 33.4281 2.51905 33.3227C2.62446 33.2173 2.68808 33.0773 2.69814 32.9286L2.69826 32.9286V32.9252V32.1851H23.2731V32.9252C23.2731 33.0782 23.3339 33.2249 23.4421 33.333C23.5502 33.4412 23.6969 33.5019 23.8499 33.5019C24.0028 33.5019 24.1495 33.4412 24.2577 33.333C24.3659 33.2249 24.4266 33.0782 24.4266 32.9252V17.0411H24.7058V17.0412L24.7092 17.0409C24.8579 17.0309 24.998 16.9673 25.1034 16.8619C25.2088 16.7564 25.2724 16.6164 25.2825 16.4677L25.2839 16.4678L25.2819 16.456C25.256 16.3026 25.1785 16.1626 25.0622 16.0592C24.946 15.9559 24.7979 15.8953 24.6425 15.8876L24.64 15.9376V15.8876H1.59476ZM9.87521 20.9917H16.6229V31.0316H9.87521V20.9917ZM16.6888 17.1227V19.8382H9.87521V17.0411H16.6888V17.1227ZM2.63242 31.0316V17.0411H8.72171V31.0316H2.63242ZM23.2731 31.0316H17.8423V17.0411H23.2731V31.0316Z" fill="#808080" stroke="#808080" stroke-width="0.1"/>
<path d="M12.5874 18.4895L12.5906 18.4396V18.4896H13.9075C14.0081 18.4896 14.1045 18.4496 14.1757 18.3785C14.2468 18.3074 14.2867 18.211 14.2867 18.1104C14.2867 18.0098 14.2468 17.9133 14.1757 17.8422C14.1045 17.7711 14.0081 17.7312 13.9075 17.7312H12.5921C12.5416 17.7283 12.4911 17.7361 12.4438 17.754C12.396 17.7721 12.3526 17.8001 12.3165 17.8362C12.2804 17.8724 12.2523 17.9158 12.2342 17.9636C12.2161 18.0113 12.2084 18.0624 12.2115 18.1134L12.2115 18.1134L12.2115 18.1136C12.2179 18.2112 12.2595 18.3032 12.3287 18.3723C12.3978 18.4415 12.4898 18.4831 12.5874 18.4895Z" fill="#808080" stroke="#808080" stroke-width="0.1"/>
<path fill-rule="evenodd" clip-rule="evenodd" d="M4.42402 14.15L4.37237 14.1455C3.96146 14.11 3.56045 13.9297 3.26031 13.6141C2.96453 13.303 2.79031 12.8822 2.8004 12.4323V2.46771C2.79031 2.01781 2.96453 1.59703 3.26031 1.28599C3.56045 0.970353 3.96147 0.79009 4.37237 0.75452L4.42402 0.750049H4.47586H21.4509C21.6662 0.748459 21.8816 0.785884 22.0857 0.86211C22.2929 0.939529 22.4875 1.05671 22.6556 1.21138C22.8239 1.36625 22.9628 1.55627 23.0585 1.77319C23.1528 1.98681 23.2018 2.21925 23.1999 2.45617V12.45V12.494L23.1967 12.538C23.1638 12.9863 22.9563 13.3883 22.6427 13.6768C22.3315 13.9632 21.9349 14.1226 21.5311 14.1477L21.4939 14.15H21.4566H4.47586H4.42402ZM21.9999 2.45005C22.0009 2.38413 21.9876 2.3187 21.9606 2.25762C21.9337 2.19654 21.8937 2.14105 21.843 2.09443C21.7924 2.04782 21.7321 2.01102 21.6657 1.98622C21.5993 1.96142 21.5282 1.94912 21.4566 1.95005H4.47586C4.34215 1.96162 4.21834 2.01991 4.12991 2.11291C4.04147 2.20591 3.99512 2.32656 4.0004 2.45005V12.45C3.99512 12.5735 4.04147 12.6941 4.12991 12.7871C4.21834 12.8801 4.34215 12.9384 4.47586 12.95H21.4566C21.5975 12.9412 21.7303 12.8857 21.8302 12.7938C21.9301 12.7019 21.9904 12.5797 21.9999 12.45V2.45005Z" fill="#808080"/>
</svg>
