<svg width="32" height="30" viewBox="0 0 32 30" fill="none" xmlns="http://www.w3.org/2000/svg">
<path d="M16.04 18.5582C16.9663 18.5582 17.7171 17.8075 17.7171 16.8811C17.7171 15.9547 16.9663 15.2039 16.04 15.2039C15.1136 15.2039 14.3628 15.9547 14.3628 16.8811C14.3628 17.8014 15.1136 18.5582 16.04 18.5582ZM16.04 16.1969C16.4154 16.1969 16.7181 16.4997 16.7181 16.875C16.7181 17.2504 16.4154 17.5532 16.04 17.5532C15.6646 17.5532 15.3618 17.2504 15.3618 16.875C15.3618 16.4997 15.6646 16.1969 16.04 16.1969Z" fill="#808080" stroke="#808080" stroke-width="0.181641" stroke-miterlimit="10"/>
<path d="M25.9212 5.86765H6.15874C5.88022 5.86765 5.66225 6.09167 5.66225 6.36413V21.5311C5.66225 21.8096 5.88628 22.0276 6.15874 22.0276H25.9273C26.2058 22.0276 26.4238 21.8036 26.4238 21.5311V6.36413C26.4238 6.09167 26.1998 5.86765 25.9212 5.86765ZM25.4248 21.0286H6.65522V14.4714H25.4248V21.0286ZM25.4248 13.4723H6.65522V6.86667H25.4248V13.4723Z" fill="#808080" stroke="#808080" stroke-width="0.181641" stroke-miterlimit="10"/>
<path d="M16.04 10.9475C16.9663 10.9475 17.7171 10.1967 17.7171 9.27038C17.7171 8.34401 16.9663 7.59323 16.04 7.59323C15.1136 7.59323 14.3628 8.34401 14.3628 9.27038C14.3628 10.1967 15.1136 10.9475 16.04 10.9475ZM16.04 8.59225C16.4154 8.59225 16.7181 8.89499 16.7181 9.27038C16.7181 9.64577 16.4154 9.9485 16.04 9.9485C15.6646 9.9485 15.3618 9.64577 15.3618 9.27038C15.3618 8.89499 15.6646 8.59225 16.04 8.59225Z" fill="#808080" stroke="#808080" stroke-width="0.181641" stroke-miterlimit="10"/>
<path d="M31.0435 1.01779H1.03644C0.757928 1.01779 0.539959 1.24182 0.539959 1.51428V3.53654C0.539959 3.81506 0.763982 4.03303 1.03644 4.03303H2.2716V28.6877C2.2716 28.9602 2.49562 29.1842 2.76808 29.1842H4.87512C5.1173 29.1842 5.32316 29.0147 5.36554 28.7785L5.9589 25.5514H26.115L26.7083 28.7785C26.7507 29.0147 26.9566 29.1842 27.1987 29.1842H29.3058C29.5843 29.1842 29.8023 28.9602 29.8023 28.6877V4.03303H31.0374C31.3159 4.03303 31.5339 3.809 31.5339 3.53654V1.51428C31.54 1.24182 31.3159 1.01779 31.0435 1.01779ZM4.4634 28.1852H3.27062V25.5453H4.94777L4.4634 28.1852ZM3.27062 24.5524V4.03303H28.8093V24.5524H3.27062ZM28.8093 28.1852H27.6165L27.1321 25.5453H28.8093V28.1852ZM30.5409 3.04006H1.53898V2.01682H30.5409V3.04006Z" fill="#808080" stroke="#808080" stroke-width="0.181641" stroke-miterlimit="10"/>
</svg>
