<svg width="35" height="27" viewBox="0 0 35 27" fill="none" xmlns="http://www.w3.org/2000/svg">
<path d="M34.3624 11.959C34.2505 11.4899 33.9708 11.0208 33.6352 10.6689L34.0268 8.38196C34.3064 6.62274 33.2996 4.86351 31.6217 4.33575C30.6708 4.04254 29.664 4.15982 28.825 4.74623C28.7132 4.80487 28.6572 4.86351 28.5454 4.9808C28.3216 3.92526 27.6504 2.98701 26.6996 2.51788C25.7487 2.1074 24.7419 2.1074 23.847 2.63517C23.6233 2.75245 23.3995 2.92837 23.1758 3.16293C23.0639 2.81109 22.8402 2.45924 22.6165 2.16604C22.0012 1.40371 21.1063 0.993225 20.1554 0.993225H15.2334C14.2825 0.993225 13.3876 1.40371 12.7723 2.16604C12.5486 2.45924 12.3249 2.81109 12.213 3.16293C11.9893 2.98701 11.7655 2.81109 11.5418 2.63517C10.6469 2.1074 9.58415 2.1074 8.68923 2.51788C7.73837 2.98701 7.06718 3.86662 6.84345 4.86351C6.78752 4.80487 6.67565 4.74623 6.56378 4.68759C5.78073 4.15983 4.77394 3.9839 3.87901 4.27711C2.1451 4.80487 1.02644 6.68138 1.30611 8.55788L1.6417 10.6689C1.25017 11.0794 0.970509 11.6072 0.858643 12.2522C0.746778 13.601 1.4739 14.8911 2.59256 15.4188V20.9897C2.59256 22.0452 3.31968 22.9835 4.27054 23.2181V25.6223C4.27054 25.9742 4.49427 26.2087 4.82987 26.2087H6.50785C6.73158 26.2087 6.95531 26.0915 7.01125 25.8569L7.9621 23.2767H27.3148L28.2657 25.8569C28.3776 26.0915 28.5454 26.2087 28.7691 26.2087H30.4471C30.7827 26.2087 31.0064 25.9742 31.0064 25.6223V23.2181C31.9573 22.9835 32.6844 22.0452 32.6844 20.9897V15.4188C34.0268 14.8324 34.7539 13.4251 34.3624 11.959ZM29.4403 5.74312C29.9996 5.39128 30.6708 5.274 31.342 5.44992C32.4606 5.80177 33.1318 6.97458 32.964 8.1474L32.6844 9.96526H32.6284C32.5725 9.96526 32.5166 9.90662 32.4606 9.90662C32.3488 9.90662 32.2929 9.84798 32.181 9.84798C32.1251 9.84798 32.0691 9.84798 32.0132 9.78934C31.9013 9.78934 31.7335 9.73069 31.6217 9.73069C31.6217 9.73069 31.6217 9.73069 31.5657 9.73069C29.7759 9.73069 28.3216 11.2554 28.3216 13.1319V13.601V16.0053C27.986 15.888 27.6504 15.7707 27.3148 15.712L28.1538 9.73069L28.4335 7.50235C28.4894 6.74002 28.881 6.15361 29.4403 5.74312ZM7.34684 18.5854C7.17904 18.5854 7.06718 18.4682 7.06718 18.2922V17.2367C7.17904 17.1781 7.29091 17.1781 7.40278 17.1194C7.62651 17.0608 7.7943 17.0021 8.01804 16.8849C8.24177 16.8262 8.4655 16.7676 8.6333 16.7089C8.8011 16.6503 8.91296 16.6503 9.08076 16.5917C9.41636 16.533 9.69602 16.4744 10.0316 16.4157C10.1435 16.4157 10.2553 16.3571 10.4231 16.3571C10.7587 16.2985 11.0384 16.2985 11.374 16.2985C11.4859 16.2985 11.5977 16.2985 11.7655 16.2985C12.1011 16.2985 12.3808 16.2985 12.7164 16.2985C12.8283 16.2985 12.9401 16.2985 13.1079 16.2985C13.4435 16.2985 13.7232 16.3571 14.0588 16.4157C14.2266 16.4157 14.3944 16.4744 14.5062 16.4744C14.6181 16.4744 14.7859 16.533 14.8978 16.533C15.2334 16.5917 15.569 16.7089 15.9605 16.7676C16.0164 16.7676 16.0724 16.8262 16.1283 16.8262C16.4639 16.9435 16.7435 17.0021 17.0791 17.1194C17.1351 17.1194 17.191 17.1781 17.2469 17.1781V18.5268L7.34684 18.5854ZM18.2537 17.2367C18.3097 17.2367 18.3656 17.1781 18.4215 17.1781C18.7571 17.0608 19.0368 16.9435 19.3724 16.8849C19.4283 16.8849 19.4842 16.8262 19.5402 16.8262C19.8758 16.7089 20.2114 16.6503 20.547 16.5917C20.6588 16.5917 20.8266 16.533 20.9385 16.533C21.1063 16.533 21.2741 16.4744 21.386 16.4744C21.7216 16.4157 22.0012 16.4157 22.3368 16.3571C22.4487 16.3571 22.5606 16.3571 22.7283 16.3571C23.0639 16.3571 23.3436 16.3571 23.6792 16.3571C23.7911 16.3571 23.9029 16.3571 24.0707 16.3571C24.4063 16.3571 24.686 16.4157 25.0216 16.4157C25.1335 16.4157 25.2453 16.4744 25.4131 16.4744C25.7487 16.533 26.0284 16.5917 26.364 16.6503C26.5318 16.7089 26.6436 16.7089 26.8114 16.7676C27.0352 16.8262 27.2589 16.8849 27.4267 16.9435C27.6504 17.0021 27.8182 17.0608 28.042 17.1781C28.1538 17.2367 28.2657 17.2367 28.3776 17.2953V18.2922C28.3776 18.4682 28.2657 18.5854 28.0979 18.5854H18.2537V17.2367ZM24.3504 3.6907C24.9097 3.33885 25.6369 3.33885 26.1962 3.63206C27.0352 4.04254 27.5945 4.9808 27.4267 5.97769L27.0352 9.02701L26.1402 15.4188C24.686 15.1256 23.2317 15.067 21.7775 15.1843L23.2877 5.15672C23.4555 4.51167 23.847 3.9839 24.3504 3.6907ZM13.6113 2.92837C14.0028 2.45924 14.6181 2.16604 15.2334 2.16604H20.1554C20.7707 2.16604 21.386 2.45924 21.7775 2.92837C22.169 3.3975 22.3368 4.10118 22.2809 4.74623V4.92215C22.2809 4.9808 22.225 5.03944 22.225 5.09808L20.6029 15.3602C20.3792 15.4188 20.2114 15.4188 19.9876 15.4775C19.9317 15.4775 19.8758 15.4775 19.8198 15.5361C19.652 15.5948 19.4283 15.6534 19.2605 15.6534C19.2046 15.6534 19.0927 15.712 19.0368 15.712C18.869 15.7707 18.7012 15.8293 18.5893 15.888C18.4775 15.9466 18.4215 15.9466 18.3097 16.0053C18.1978 16.0639 18.03 16.1225 17.9181 16.1812C17.8622 16.1812 17.7503 16.2398 17.6944 16.2398C17.6385 16.1812 17.5266 16.1812 17.4707 16.1812C17.3588 16.1225 17.191 16.0639 17.0791 16.0053C16.9673 15.9466 16.9113 15.9466 16.7995 15.888C16.6317 15.8293 16.4639 15.7707 16.352 15.712C16.2961 15.712 16.1842 15.6534 16.1283 15.6534C15.9605 15.5948 15.7368 15.5361 15.569 15.5361C15.513 15.5361 15.4571 15.5361 15.4012 15.4775C15.1774 15.4188 15.0096 15.3602 14.7859 15.3602L13.2198 5.09808C13.2198 5.03944 13.2198 4.9808 13.1638 4.92215V4.74623C13.052 4.10118 13.2198 3.45614 13.6113 2.92837ZM9.13669 3.57342C9.41636 3.45614 9.69602 3.3975 9.97568 3.3975C10.3113 3.3975 10.6469 3.51478 10.9825 3.6907C11.5418 3.9839 11.9333 4.57031 12.0452 5.21536L13.5554 15.2429C12.1011 15.1256 10.6469 15.1843 9.19262 15.4775L8.07397 7.1505L7.90617 6.03633C7.79431 4.9808 8.2977 3.9839 9.13669 3.57342ZM2.70442 10.0239L2.42476 8.4406C2.20103 7.1505 2.98409 5.86041 4.21461 5.44992C4.82987 5.274 5.44513 5.33264 5.94852 5.68448C6.45192 6.03633 6.84345 6.62274 6.89938 7.26778L8.01804 15.712C7.68244 15.8293 7.34684 15.888 7.01125 16.0053V13.5423V13.2491C7.01125 11.5486 5.83666 10.1998 4.32647 9.90662C4.15868 9.84798 3.93494 9.84798 3.76715 9.84798C3.65528 9.84798 3.59935 9.84798 3.48748 9.84798C3.37562 9.84798 3.26375 9.84798 3.20782 9.90662C3.15189 9.90662 3.15189 9.90662 3.15189 9.90662C3.04002 9.90662 2.87222 9.96526 2.70442 10.0239ZM6.11632 25.0359H5.3892V23.2767H6.78752L6.11632 25.0359ZM29.9996 25.0359H29.2725L28.6013 23.2767H29.9996V25.0359ZM32.0691 14.422C32.0132 14.422 31.9573 14.4806 31.9573 14.4806H31.1183C30.7827 14.4806 30.5589 14.7152 30.5589 15.067C30.5589 15.4188 30.7827 15.6534 31.1183 15.6534H31.6776V20.9897C31.6776 21.6348 31.1742 22.1039 30.6149 22.1039H30.5589H27.7623H7.62651H4.82987H4.77394C4.15868 22.1039 3.71121 21.5761 3.71121 20.9897V15.6534H4.27054C4.60614 15.6534 4.82987 15.4188 4.82987 15.067C4.82987 14.7152 4.60614 14.4806 4.27054 14.4806H3.43155C3.37562 14.4806 3.31968 14.422 3.31968 14.422C2.48069 14.1874 1.92137 13.3664 2.03323 12.4868C2.08916 12.0763 2.31289 11.6658 2.59256 11.4313C3.20782 10.9035 4.27054 10.7862 5.16547 11.6658C5.61293 12.135 5.89259 12.8387 5.89259 13.601V16.8849V18.2922V19.1719C5.89259 19.5237 6.11632 19.7583 6.45192 19.7583H7.29091H17.6944H28.042H28.881C29.2165 19.7583 29.4403 19.5237 29.4403 19.1719V18.2922V16.8262V13.601C29.4403 12.9559 29.6081 12.3695 29.9437 11.9004C30.3352 11.3726 30.7827 11.0794 31.2861 11.0208C31.342 11.0208 31.3979 11.0208 31.4539 11.0208C31.5098 11.0208 31.5657 11.0208 31.6217 11.0208C31.6776 11.0208 31.6776 11.0208 31.7335 11.0208C31.8454 11.0208 31.9013 11.0208 31.9573 11.0794H32.0132C32.2369 11.1381 32.4606 11.2554 32.6284 11.4313C32.9081 11.6658 33.1318 11.959 33.1878 12.3109C33.5793 13.3078 32.9081 14.1874 32.0691 14.422Z" fill="#606060"/>
</svg>
