<svg width="43" height="31" viewBox="0 0 43 31" fill="none" xmlns="http://www.w3.org/2000/svg">
<path d="M38.5349 1.25731L38.5349 1.25732L42.0233 6.14104L42.0634 6.1124L42.0233 6.14106C42.1017 6.25075 42.1438 6.3823 42.1438 6.51737V9.30807C42.1438 9.66574 41.8538 9.95574 41.4961 9.95574H40.7984H40.7484V10.0057V30.2383C40.7484 30.596 40.4584 30.886 40.1008 30.886H37.3101C36.9524 30.886 36.6624 30.596 36.6624 30.2383V10.0057V9.95574H36.6124H35.9147H35.8647V10.0057V25.3546C35.8647 25.7123 35.5747 26.0023 35.217 26.0023H33.124C32.7663 26.0023 32.4763 25.7123 32.4763 25.3546V10.0057V9.95574H32.4263H10.1008H10.0508V10.0057V25.3546C10.0508 25.7123 9.76076 26.0023 9.40308 26.0023H7.31006C6.95238 26.0023 6.66238 25.7123 6.66238 25.3546V10.0057V9.95574H6.61238H5.91471H5.86471V10.0057V30.2383C5.86471 30.596 5.57471 30.886 5.21704 30.886H2.42634C2.06866 30.886 1.77866 30.596 1.77866 30.2383V10.0057V9.95574H1.72866H1.03099C0.673315 9.95574 0.383314 9.66574 0.383314 9.30807L0.383315 6.51737L0.383314 6.51727C0.382998 6.36278 0.438599 6.2136 0.53947 6.0966L0.539564 6.09649L4.72561 1.21277L4.72569 1.21267C4.84833 1.06886 5.02792 0.98629 5.21712 0.985974L38.0077 0.985974C38.2171 0.985974 38.4135 1.08718 38.5349 1.25731ZM5.53794 2.28132H5.51494L5.49998 2.29878L2.50965 5.78715L2.4389 5.86969H2.54761H40.1406H40.2378L40.1813 5.79063L37.689 2.30226L37.6741 2.28132H37.6483H5.53794ZM4.51936 29.5906H4.56936V29.5406V10.0057V9.95574H4.51936H3.12401H3.07401V10.0057V29.5406V29.5906H3.12401H4.51936ZM8.70541 24.7069H8.75541V24.6569V10.0057V9.95574H8.70541H8.00773H7.95773V10.0057V24.6569V24.7069H8.00773H8.70541ZM34.5194 24.7069H34.5694V24.6569V10.0057V9.95574H34.5194H33.8217H33.7717V10.0057V24.6569V24.7069H33.8217H34.5194ZM39.4031 29.5906H39.4531V29.5406V10.0057V9.95574H39.4031H38.0077H37.9577V10.0057V29.5406V29.5906H38.0077H39.4031ZM1.67866 8.61039V8.66039H1.72866H40.7984H40.8484V8.61039V7.21504V7.16504H40.7984H1.72866H1.67866V7.21504V8.61039Z" fill="#808080" stroke="white" stroke-width="0.1"/>
</svg>
