<svg width="21" height="25" viewBox="0 0 21 25" fill="none" xmlns="http://www.w3.org/2000/svg">
<path fill-rule="evenodd" clip-rule="evenodd" d="M5.63977 5.96394C5.63977 3.42745 7.69601 1.37122 10.2325 1.37122C12.769 1.37122 14.8252 3.42745 14.8252 5.96394C14.8252 8.50044 12.769 10.5567 10.2325 10.5567C7.69601 10.5567 5.63977 8.50044 5.63977 5.96394ZM10.2325 0C6.9387 0 4.26855 2.67015 4.26855 5.96394C4.26855 9.25774 6.9387 11.9279 10.2325 11.9279C13.5263 11.9279 16.1964 9.25774 16.1964 5.96394C16.1964 2.67015 13.5263 0 10.2325 0ZM10.2325 13.8304C4.57552 13.8304 0 18.406 0 24.0629C0 24.4416 0.306958 24.7485 0.685609 24.7485C1.06426 24.7485 1.37122 24.4416 1.37122 24.0629C1.37122 19.1633 5.33283 15.2016 10.2325 15.2016C15.1322 15.2016 19.0938 19.1633 19.0938 24.0629C19.0938 24.4416 19.4008 24.7485 19.7794 24.7485C20.1581 24.7485 20.465 24.4416 20.465 24.0629C20.465 18.406 15.8895 13.8304 10.2325 13.8304Z" fill="#808080"/>
</svg>
