<svg width="10" height="6" viewBox="0 0 10 6" fill="none" xmlns="http://www.w3.org/2000/svg">
<path d="M5.3902 0.162908L9.84025 4.70779C9.94325 4.8129 10 4.95323 10 5.10285C10 5.25247 9.94325 5.39279 9.84025 5.49791L9.51261 5.83261C9.29911 6.0504 8.95212 6.0504 8.73895 5.83261L5.00207 2.01616L1.26105 5.83684C1.15804 5.94196 1.02072 6 0.874302 6C0.727717 6 0.590401 5.94196 0.487312 5.83684L0.159754 5.50214C0.0567474 5.39694 8.86371e-09 5.2567 1.06479e-08 5.10708C1.24322e-08 4.95746 0.0567475 4.81714 0.159754 4.71202L4.61386 0.162908C4.7172 0.0575418 4.85516 -0.00033051 5.00183 1.37091e-06C5.14906 -0.000330506 5.28695 0.0575418 5.3902 0.162908Z" fill="#35383D"/>
</svg>
