<svg width="27" height="28" viewBox="0 0 27 28" fill="none" xmlns="http://www.w3.org/2000/svg">
<path fill-rule="evenodd" clip-rule="evenodd" d="M23.8094 3.71056C24.5515 3.71056 25.2936 4.01977 25.7265 4.57635C26.2213 5.13294 26.4068 5.81321 26.2831 6.49347L24.9844 15.1514C24.737 16.4501 23.6857 17.3159 22.5107 17.3159H8.78165L9.02902 18.8002C9.15271 19.4186 9.64745 19.8515 10.2659 19.8515H23.5002V21.0883H10.2659C9.09086 21.0883 8.03954 20.2225 7.79217 19.0475L5.19478 2.28818C5.13294 1.66975 4.57635 1.23685 3.95793 1.23685H0V0H3.95793C5.19478 0 6.2461 0.927639 6.43163 2.10265L6.679 3.71056H23.8094ZM23.7476 15.0278L25.0463 6.36979C25.1081 5.99873 25.0463 5.62768 24.7989 5.44215C24.5515 5.19478 24.1805 5.00925 23.8094 5.00925H6.86453L8.59612 16.1409H22.5107C23.1291 16.1409 23.6239 15.708 23.7476 15.0278ZM10.5133 22.2635C9.15272 22.2635 8.03955 23.3766 8.03955 24.7372C8.03955 26.0977 9.15272 27.2109 10.5133 27.2109C11.8738 27.2109 12.987 26.0977 12.987 24.7372C12.987 23.3766 11.8738 22.2635 10.5133 22.2635ZM10.5133 25.974C9.83299 25.974 9.2764 25.4174 9.2764 24.7372C9.2764 24.0569 9.83299 23.5003 10.5133 23.5003C11.1935 23.5003 11.7501 24.0569 11.7501 24.7372C11.7501 25.4174 11.1935 25.974 10.5133 25.974ZM21.6448 22.2635C20.2843 22.2635 19.1711 23.3766 19.1711 24.7372C19.1711 26.0977 20.2843 27.2109 21.6448 27.2109C23.0054 27.2109 24.1186 26.0977 24.1186 24.7372C24.1186 23.3766 23.0054 22.2635 21.6448 22.2635ZM21.6448 25.974C20.9646 25.974 20.408 25.4174 20.408 24.7372C20.408 24.0569 20.9646 23.5003 21.6448 23.5003C22.3251 23.5003 22.8817 24.0569 22.8817 24.7372C22.8817 25.4174 22.3251 25.974 21.6448 25.974Z" fill="#808080"/>
</svg>
