<svg width="40" height="46" viewBox="0 0 40 46" fill="none" xmlns="http://www.w3.org/2000/svg">
<path d="M39.9039 28.0456L36.7412 21.8335C36.5905 21.5375 36.2865 21.3511 35.9543 21.3511H20.0007H4.04695C3.71478 21.3511 3.41077 21.5375 3.26004 21.8335L0.0973157 28.0456C-0.0420178 28.3194 -0.0291262 28.6458 0.131399 28.9077C0.291924 29.1696 0.577036 29.3292 0.884135 29.3292H1.98626V44.9152C1.98626 45.4028 2.38157 45.7982 2.86924 45.7982H37.1293C37.617 45.7982 38.0123 45.4028 38.0123 44.9152V29.3293H39.117C39.4241 29.3293 39.7093 29.1696 39.8697 28.9078C40.0304 28.6458 40.0433 28.3194 39.9039 28.0456ZM35.4131 23.1171L37.6767 27.5632H23.7047L21.441 23.1171H35.4131ZM4.5883 23.1171H18.5603L16.2966 27.5632H2.32462L4.5883 23.1171ZM36.2465 44.0322H20.8837V39.1385C20.8837 38.6509 20.4884 38.2555 20.0007 38.2555C19.5131 38.2555 19.1177 38.6509 19.1177 39.1385V44.0322H3.75239V29.3293H16.838C17.1702 29.3293 17.4742 29.1429 17.6249 28.8469L19.1177 25.9146V31.2095C19.1177 31.697 19.5131 32.0924 20.0007 32.0924C20.4884 32.0924 20.8837 31.697 20.8837 31.2095V25.9146L22.3765 28.8469C22.5273 29.1429 22.8313 29.3293 23.1634 29.3293H36.2465V44.0322Z" fill="#FF5E3F"/>
<path d="M12.4501 39.1966H7.42228C6.93461 39.1966 6.53931 39.592 6.53931 40.0796C6.53931 40.5671 6.93461 40.9625 7.42228 40.9625H12.4501C12.9378 40.9625 13.3331 40.5671 13.3331 40.0796C13.3331 39.592 12.9378 39.1966 12.4501 39.1966Z" fill="#FF5E3F"/>
<path d="M20.0007 18.7547C24.9969 18.7547 29.0618 14.6848 29.0618 9.68229C29.0617 4.68112 24.9969 0.612366 20.0007 0.612366C15.0031 0.612366 10.9371 4.68112 10.9371 9.68229C10.9371 14.6848 15.003 18.7547 20.0007 18.7547ZM20.0007 2.37832C24.0233 2.37832 27.2958 5.65486 27.2958 9.68229C27.2958 13.7111 24.0233 16.9887 20.0007 16.9887C15.9768 16.9887 12.7031 13.7111 12.7031 9.68229C12.7031 5.65486 15.9767 2.37832 20.0007 2.37832Z" fill="#FF5E3F"/>
<path d="M16.042 11.0066L18.3922 12.9988C18.5523 13.1345 18.7548 13.2082 18.9631 13.2082C18.9882 13.2082 19.0134 13.2071 19.0385 13.205C19.2729 13.1849 19.4895 13.0722 19.6404 12.8918L24.0632 7.60581C24.3761 7.23187 24.3266 6.67497 23.9527 6.36196C23.5786 6.04921 23.0218 6.09857 22.7089 6.4726L18.8563 11.077L17.184 9.65943C16.812 9.34412 16.2548 9.38986 15.9396 9.76203C15.6241 10.1341 15.67 10.6912 16.042 11.0066Z" fill="#FF5E3F"/>
<path d="M2.6544 10.5653H6.47468C6.96235 10.5653 7.35765 10.1699 7.35765 9.68229C7.35765 9.19471 6.96235 8.79932 6.47468 8.79932H2.6544C2.16673 8.79932 1.77142 9.19471 1.77142 9.68229C1.77142 10.1699 2.16673 10.5653 2.6544 10.5653Z" fill="#FF5E3F"/>
<path d="M2.24251 4.42127L6.06279 6.43613C6.19418 6.50545 6.33502 6.53829 6.474 6.53829C6.79098 6.53829 7.09755 6.36708 7.25578 6.06705C7.48324 5.63571 7.31803 5.1016 6.8867 4.87415L3.06633 2.85929C2.63517 2.63183 2.10089 2.79695 1.87343 3.22837C1.64598 3.6597 1.81118 4.19382 2.24251 4.42127Z" fill="#FF5E3F"/>
<path d="M1.87313 16.1357C2.03127 16.4359 2.33784 16.6074 2.6551 16.6074C2.79381 16.6074 2.93465 16.5746 3.06586 16.5055L6.88614 14.4932C7.31756 14.2659 7.48311 13.7319 7.25584 13.3005C7.02856 12.869 6.49454 12.7035 6.06311 12.9307L2.24283 14.943C1.81141 15.1703 1.64594 15.7043 1.87313 16.1357Z" fill="#FF5E3F"/>
<path d="M33.5242 10.5653H37.3445C37.8322 10.5653 38.2275 10.1699 38.2275 9.68229C38.2275 9.19471 37.8322 8.79932 37.3445 8.79932H33.5242C33.0365 8.79932 32.6412 9.19471 32.6412 9.68229C32.6412 10.1699 33.0365 10.5653 33.5242 10.5653Z" fill="#FF5E3F"/>
<path d="M33.5249 6.53829C33.6638 6.53829 33.8047 6.50545 33.9361 6.43613L37.7564 4.42127C38.1877 4.19382 38.3529 3.6597 38.1254 3.22837C37.8979 2.79704 37.3639 2.63166 36.9325 2.85929L33.1123 4.87415C32.6809 5.1016 32.5157 5.63571 32.7432 6.06705C32.9014 6.36708 33.2078 6.53829 33.5249 6.53829Z" fill="#FF5E3F"/>
<path d="M33.1126 14.4931L36.9329 16.5054C37.0642 16.5745 37.2049 16.6073 37.3437 16.6073C37.6609 16.6073 37.9675 16.4359 38.1256 16.1356C38.3529 15.7042 38.1873 15.1701 37.7559 14.9429L33.9356 12.9306C33.5041 12.7033 32.9702 12.8688 32.7429 13.3003C32.5156 13.7318 32.6812 14.2658 33.1126 14.4931Z" fill="#FF5E3F"/>
<path d="M20.0007 34.2911C19.513 34.2911 19.1177 34.6865 19.1177 35.1741V35.1791C19.1177 35.6667 19.513 36.0596 20.0007 36.0596C20.4884 36.0596 20.8837 35.6617 20.8837 35.1741C20.8837 34.6866 20.4884 34.2911 20.0007 34.2911Z" fill="#FF5E3F"/>
</svg>
