<svg width="37" height="49" viewBox="0 0 37 49" fill="none" xmlns="http://www.w3.org/2000/svg">
<path d="M3.82812 18.1836C3.82812 26.0993 10.2679 32.5391 18.1836 32.5391C26.0993 32.5391 32.5391 26.0993 32.5391 18.1836C32.5391 10.2679 26.0993 3.82812 18.1836 3.82812C10.2679 3.82812 3.82812 10.2679 3.82812 18.1836ZM18.1836 5.74219C25.044 5.74219 30.625 11.3233 30.625 18.1836C30.625 25.044 25.044 30.625 18.1836 30.625C11.3233 30.625 5.74219 25.044 5.74219 18.1836C5.74219 11.3233 11.3233 5.74219 18.1836 5.74219Z" fill="#FF5E3F"/>
<path d="M9.32062 16.4774L13.0302 20.1325L12.1768 25.2694C12.1173 25.6272 12.265 25.9876 12.5585 26.2007C12.8516 26.4137 13.24 26.4425 13.5618 26.2758L18.1836 23.8757L22.8051 26.2758C23.1243 26.4414 23.5128 26.4156 23.8085 26.2007C24.1019 25.9876 24.2496 25.6272 24.1901 25.2694L23.3367 20.1325L27.0463 16.4774C27.3046 16.2232 27.397 15.8449 27.2848 15.4998C27.1727 15.1552 26.8755 14.9036 26.5169 14.8494L21.3688 14.0744L19.0394 9.41595C18.8775 9.09183 18.5459 8.88696 18.1836 8.88696C17.821 8.88696 17.4898 9.09183 17.3275 9.41595L14.9981 14.0744L9.84998 14.8494C9.49147 14.9032 9.19426 15.1552 9.08211 15.4998C8.96996 15.8449 9.06267 16.2232 9.32062 16.4774V16.4774ZM15.7746 15.8931C16.0827 15.8468 16.3488 15.6535 16.4883 15.375L18.1836 11.9839L19.879 15.375C20.0185 15.6535 20.2846 15.8468 20.5927 15.8931L24.3397 16.4572L21.6394 19.1171C21.4177 19.3358 21.3161 19.6487 21.3669 19.956L21.9882 23.6948L18.6244 21.9482C18.4865 21.8764 18.3351 21.8406 18.1836 21.8406C18.0322 21.8406 17.8808 21.8764 17.7425 21.9482L14.3787 23.6948L15 19.956C15.0512 19.6487 14.9495 19.3358 14.7275 19.1171L12.0276 16.4572L15.7746 15.8931Z" fill="#FF5E3F"/>
<path d="M19.1406 0.957033C19.1406 1.48564 18.7122 1.91407 18.1836 1.91407C17.655 1.91407 17.2266 1.48564 17.2266 0.957033C17.2266 0.428422 17.655 0 18.1836 0C18.7122 0 19.1406 0.428422 19.1406 0.957033Z" fill="#FF5E3F"/>
<path d="M13.6732 0.56413C5.62257 2.61913 0 9.86454 0 18.1836C0 23.3505 2.17239 28.219 5.98594 31.6669L0.220192 41.8283C0.0347672 42.1554 0.0579454 42.5607 0.279259 42.8642C0.500573 43.1682 0.8789 43.3143 1.24713 43.2377L7.79496 41.878L10.0963 48.3631C10.2212 48.716 10.5408 48.9631 10.9139 48.9963C11.287 49.0296 11.6448 48.8416 11.8298 48.516L18.1836 37.3456L24.537 48.516C24.7083 48.8169 25.0268 48.9997 25.3685 48.9997C25.3965 48.9997 25.4249 48.9986 25.453 48.9963C25.8261 48.9631 26.1457 48.7156 26.2709 48.3631L28.5719 41.878L35.1197 43.2377C35.4876 43.314 35.8663 43.1678 36.0876 42.8642C36.3093 42.5607 36.3321 42.1554 36.1467 41.8283L30.3809 31.6669C34.1945 28.219 36.3669 23.3505 36.3669 18.1836C36.3669 9.86454 30.7443 2.61913 22.694 0.56413C22.1815 0.433286 21.6607 0.742452 21.5299 1.25461C21.399 1.76678 21.7082 2.28791 22.2204 2.41876C29.4228 4.2573 34.4532 10.7401 34.4532 18.1836C34.4532 27.2429 27.0956 34.4532 18.1836 34.4532C9.26527 34.4532 1.91407 27.2369 1.91407 18.1836C1.91407 10.7401 6.94409 4.2573 14.1465 2.41876C14.6587 2.28791 14.9678 1.76678 14.8374 1.25461C14.7065 0.742452 14.1858 0.433286 13.6732 0.56413V0.56413ZM11.2006 45.7514L9.31985 40.4515C9.15985 40.0006 8.6918 39.7371 8.22338 39.8343L2.92867 40.9337L7.49177 32.8917C10.1524 34.8259 13.3028 36.0043 16.5787 36.2958L11.2006 45.7514ZM28.1435 39.8343C27.6754 39.7371 27.207 40.0006 27.047 40.4515L25.1666 45.7514L19.7881 36.2958C23.0645 36.0043 26.2145 34.8259 28.8755 32.8917L33.4386 40.9337L28.1435 39.8343Z" fill="#FF5E3F"/>
</svg>
