<svg width="64" height="64" viewBox="0 0 64 64" fill="none" xmlns="http://www.w3.org/2000/svg">
<rect width="64" height="64" rx="8" fill="#FF5E3F"/>
<path d="M21.1199 27.2641L20.5935 29.9619H30.3317L29.2131 35.5547H19.4421L18.8499 38.5814H30.3975L29.2131 44.4375H10.0658L14.6717 21.4081H33.3913L32.2069 27.2641H21.1199ZM41.348 44.9639C39.3521 44.9639 37.4769 44.7555 35.7223 44.3388C33.9676 43.9001 32.5201 43.3299 31.3796 42.628L34.3734 36.9036C36.8518 38.3292 39.4399 39.042 42.1376 39.042C43.1246 39.042 43.8813 38.9214 44.4076 38.6801C44.934 38.4389 45.1972 38.1099 45.1972 37.6932C45.1972 37.2984 44.9231 36.9804 44.3747 36.7391C43.8484 36.4978 43.0039 36.2346 41.8415 35.9495C40.3062 35.5547 39.0341 35.1599 38.0252 34.7651C37.0163 34.3484 36.128 33.7233 35.3604 32.8899C34.6147 32.0345 34.2418 30.9159 34.2418 29.5342C34.2418 27.8015 34.7024 26.2881 35.6236 24.9941C36.5667 23.6781 37.9155 22.6692 39.6702 21.9674C41.4248 21.2436 43.4974 20.8817 45.8881 20.8817C47.5989 20.8817 49.189 21.0572 50.6585 21.4081C52.1499 21.7371 53.433 22.2196 54.5077 22.8556L51.7113 28.5143C50.812 27.944 49.8141 27.5164 48.7174 27.2312C47.6427 26.9461 46.5351 26.8035 45.3946 26.8035C44.3199 26.8035 43.4865 26.9571 42.8943 27.2641C42.3021 27.5712 42.006 27.9331 42.006 28.3498C42.006 28.7665 42.2692 29.0955 42.7956 29.3368C43.3439 29.578 44.2322 29.8412 45.4604 30.1264C46.9518 30.4773 48.202 30.8501 49.2109 31.2449C50.2418 31.6397 51.13 32.2538 51.8758 33.0873C52.6215 33.9207 52.9943 35.0174 52.9943 36.3772C52.9943 38.088 52.5228 39.5904 51.5797 40.8844C50.6366 42.1784 49.2877 43.1873 47.5331 43.9111C45.7784 44.613 43.7168 44.9639 41.348 44.9639Z" fill="white"/>
</svg>
