<svg width="160" height="28" viewBox="0 0 160 28" fill="none" xmlns="http://www.w3.org/2000/svg">
<path d="M79.0338 21.9194C77.7265 21.9194 76.4981 21.7829 75.3489 21.5099C74.1996 21.2226 73.2514 20.8491 72.5044 20.3894L74.4653 16.6398C76.0887 17.5736 77.7839 18.0405 79.5509 18.0405C80.1974 18.0405 80.6931 17.9615 81.0378 17.8035C81.3826 17.6455 81.555 17.43 81.555 17.157C81.555 16.8984 81.3754 16.6901 81.0163 16.5321C80.6715 16.3741 80.1184 16.2017 79.357 16.0149C78.3514 15.7563 77.5181 15.4977 76.8573 15.2391C76.1965 14.9662 75.6146 14.5567 75.1118 14.0108C74.6234 13.4505 74.3791 12.7179 74.3791 11.8128C74.3791 10.6779 74.6808 9.68662 75.2842 8.83902C75.902 7.97705 76.7855 7.31621 77.9348 6.8565C79.0841 6.38242 80.4416 6.14538 82.0076 6.14538C83.1281 6.14538 84.1697 6.2603 85.1322 6.49016C86.1091 6.70565 86.9495 7.02171 87.6534 7.43833L85.8218 11.1448C85.2327 10.7713 84.5791 10.4911 83.8608 10.3044C83.1568 10.1176 82.4314 10.0242 81.6843 10.0242C80.9804 10.0242 80.4345 10.1248 80.0466 10.3259C79.6587 10.527 79.4648 10.7641 79.4648 11.037C79.4648 11.31 79.6371 11.5255 79.9819 11.6835C80.3411 11.8415 80.9229 12.0139 81.7274 12.2007C82.7043 12.4306 83.5232 12.6748 84.184 12.9334C84.8592 13.192 85.4411 13.5942 85.9295 14.1401C86.418 14.686 86.6622 15.4043 86.6622 16.295C86.6622 17.4156 86.3533 18.3997 85.7356 19.2473C85.1178 20.0949 84.2343 20.7557 83.085 21.2298C81.9357 21.6895 80.5853 21.9194 79.0338 21.9194ZM105.092 6.49016L102.075 21.5746H96.9891L98.1097 16.0149H93.412L92.2914 21.5746H87.2058L90.2227 6.49016H95.3083L94.2308 11.8344H98.9285L100.006 6.49016H105.092ZM113.015 21.9194C111.478 21.9194 110.128 21.6392 108.964 21.079C107.815 20.5043 106.924 19.707 106.292 18.687C105.674 17.667 105.366 16.4962 105.366 15.1745C105.366 13.4218 105.768 11.8631 106.572 10.4983C107.391 9.11916 108.519 8.04889 109.955 7.28748C111.406 6.52608 113.044 6.14538 114.869 6.14538C116.406 6.14538 117.749 6.4327 118.898 7.00734C120.062 7.56762 120.953 8.35776 121.57 9.37775C122.203 10.3977 122.519 11.5686 122.519 12.8903C122.519 14.6429 122.109 16.2088 121.29 17.588C120.486 18.9528 119.358 20.0159 117.907 20.7773C116.471 21.5387 114.84 21.9194 113.015 21.9194ZM113.446 17.8035C114.251 17.8035 114.948 17.5952 115.537 17.1786C116.14 16.7619 116.6 16.2017 116.916 15.4977C117.232 14.7938 117.39 14.0252 117.39 13.192C117.39 12.3013 117.124 11.5901 116.593 11.0586C116.075 10.527 115.357 10.2613 114.438 10.2613C113.633 10.2613 112.929 10.4696 112.326 10.8862C111.737 11.3028 111.284 11.8631 110.968 12.567C110.652 13.271 110.494 14.0396 110.494 14.8728C110.494 15.7635 110.753 16.4746 111.27 17.0062C111.802 17.5377 112.527 17.8035 113.446 17.8035ZM132.51 6.49016C134.521 6.49016 136.08 6.92833 137.186 7.80466C138.292 8.68099 138.846 9.9093 138.846 11.4896C138.846 12.7538 138.529 13.8672 137.897 14.8297C137.28 15.7922 136.389 16.5393 135.225 17.0708C134.076 17.6024 132.74 17.8681 131.217 17.8681H128.61L127.877 21.5746H122.791L125.808 6.49016H132.51ZM131.476 13.9462C132.18 13.9462 132.726 13.7738 133.113 13.429C133.501 13.0698 133.695 12.5742 133.695 11.9421C133.695 10.9221 133.063 10.4121 131.799 10.4121H130.097L129.385 13.9462H131.476Z" fill="#35383D"/>
<path d="M7.28362 10.3259L6.93884 12.0929H13.3174L12.5847 15.7563H6.18461L5.79673 17.7388H13.3605L12.5847 21.5746H0.0430984L3.05998 6.49016H15.3215L14.5457 10.3259H7.28362ZM17.5594 6.49016H22.645L20.4254 17.6311H27.235L26.4376 21.5746H14.5425L17.5594 6.49016ZM30.8593 6.49016H35.9449L32.928 21.5746H27.8424L30.8593 6.49016ZM40.8712 10.4337H36.4536L37.2509 6.49016H51.1717L50.3744 10.4337H45.9568L43.7373 21.5746H38.6516L40.8712 10.4337ZM56.7163 10.3259L56.3715 12.0929H62.75L62.0173 15.7563H55.6172L55.2294 17.7388H62.7931L62.0173 21.5746H49.4757L52.4926 6.49016H64.7541L63.9783 10.3259H56.7163ZM68.9099 5.3696C69.7 5.3696 70.3393 5.60665 70.8278 6.08073C71.3162 6.55481 71.5604 7.17255 71.5604 7.93396C71.5604 8.32184 71.4886 8.69536 71.3449 9.05451C71.2013 9.41367 70.9355 9.87338 70.5476 10.4337L68.0048 14.1617H64.9879L66.8627 10.4121C66.5323 10.1823 66.2809 9.89493 66.1085 9.55014C65.9361 9.19099 65.8499 8.79592 65.8499 8.36494C65.8499 7.47424 66.1444 6.75593 66.7334 6.21002C67.3224 5.64974 68.0479 5.3696 68.9099 5.3696Z" fill="#FF5E3F"/>
<path fill-rule="evenodd" clip-rule="evenodd" d="M3.5 1.94833V2.60103L144.976 2.60105L141.254 21.9999H144.705L145.976 15.3737H153.324L152.264 21.9999H155.696L156.984 13.9469L157.298 11.9849H155.311H146.626L148.69 1.22586L148.925 -0.000183105L3.5 1.94833Z" fill="#FF5E3F"/>
</svg>
