<svg width="53" height="49" viewBox="0 0 53 49" fill="none" xmlns="http://www.w3.org/2000/svg">
<path d="M34.1391 10.522C30.7633 10.522 27.4505 11.4248 24.5594 13.1328C22.5012 14.3487 20.6937 15.9483 19.2341 17.8284V14.1512C19.2341 13.2907 18.534 12.5907 17.6735 12.5907H5.91692C5.05639 12.5907 4.35641 13.2908 4.35641 14.1512V22.3372H1.56127C0.927859 22.3372 0.36204 22.7152 0.119605 23.3005C-0.122829 23.8858 0.00987833 24.5533 0.457896 25.0013L4.93683 29.4803C5.24003 29.7834 5.73162 29.7834 6.03472 29.4803C6.33792 29.177 6.33792 28.6855 6.03472 28.3823L1.55196 23.9036C1.55185 23.8991 1.55558 23.8902 1.56127 23.89H5.13289C5.56165 23.89 5.90926 23.5425 5.90926 23.1136V14.1513C5.90926 14.1471 5.91278 14.1435 5.91702 14.1435H17.6737C17.678 14.1435 17.6814 14.1471 17.6814 14.1513V20.3472C17.6812 20.3526 17.6814 20.358 17.6814 20.3635V23.1137C17.6814 23.5426 18.029 23.8901 18.4578 23.8901L22.0319 23.8873C22.0351 23.8903 22.0387 23.8992 22.0348 23.9035L11.8007 34.1375C11.7981 34.1401 11.7923 34.1401 11.7898 34.1374L8.07347 30.421C7.77027 30.1179 7.27867 30.1179 6.97558 30.421C6.67238 30.7243 6.67238 31.2158 6.97558 31.519L10.6918 35.2352C10.9865 35.53 11.3784 35.6923 11.7954 35.6923C12.2124 35.6923 12.6042 35.53 12.8989 35.2353L15.5503 32.5838C16.2478 36.6608 18.2687 40.3978 21.3431 43.2383C24.8359 46.4656 29.3805 48.243 34.1393 48.243C37.4449 48.243 40.6976 47.3752 43.5455 45.7335C43.9169 45.5194 44.0445 45.0446 43.8304 44.6731C43.6162 44.3017 43.1417 44.1743 42.77 44.3882C40.1576 45.8943 37.1731 46.6902 34.1393 46.6902C25.3345 46.6902 17.843 39.918 16.927 31.2073L17.5849 30.5494C18.1857 39.1582 25.3806 45.9789 34.1395 45.9789C34.5684 45.9789 34.9159 45.6314 34.9159 45.2025C34.9159 44.7736 34.5684 44.4261 34.1395 44.4261C25.8446 44.4261 19.0961 37.6777 19.0961 29.3827C19.0961 29.2806 19.0759 29.1835 19.0401 29.0943L21.1928 26.9415C21.0439 27.7329 20.965 28.5487 20.965 29.3827C20.965 36.647 26.8751 42.557 34.1395 42.557C41.4039 42.557 47.3138 36.647 47.3138 29.3827C47.3138 27.4643 46.9098 25.6134 46.1129 23.8817C45.9336 23.4921 45.4724 23.3218 45.0831 23.5009C44.6935 23.6801 44.5231 24.1412 44.7023 24.5307C45.4048 26.0573 45.7611 27.6898 45.7611 29.3826C45.7611 35.7907 40.5477 41.0042 34.1395 41.0042C27.7314 41.0042 22.5178 35.7908 22.5178 29.3826C22.5178 22.9743 27.7313 17.7609 34.1395 17.7609C37.7508 17.7609 41.0958 19.3979 43.3169 22.2525C43.5803 22.5911 44.0682 22.6518 44.4063 22.3884C44.7448 22.125 44.8055 21.6373 44.5422 21.299C42.0249 18.0638 38.2332 16.2082 34.1394 16.2082C29.3631 16.2082 25.1727 18.7632 22.8621 22.578C22.6183 22.4242 22.3317 22.3372 22.0292 22.3372H19.2341V20.5844C22.3418 15.3311 28.0328 12.0749 34.1391 12.0749C43.6828 12.0749 51.4472 19.8388 51.4472 29.3819C51.4472 34.6004 49.1263 39.4888 45.0794 42.7939C44.7473 43.0651 44.698 43.5542 44.9693 43.8863C45.1227 44.0742 45.346 44.1716 45.571 44.1716C45.7437 44.1716 45.9175 44.1142 46.0616 43.9965C50.4711 40.3955 52.9998 35.0687 52.9998 29.382C53.0001 18.9826 44.5391 10.522 34.1391 10.522Z" fill="#FF5E3F"/>
<path d="M34.1395 12.7861C33.7107 12.7861 33.3632 13.1336 33.3632 13.5625C33.3632 13.9914 33.7107 14.3389 34.1395 14.3389C42.4346 14.3389 49.183 21.0873 49.183 29.3823C49.183 29.8112 49.5305 30.1587 49.9594 30.1587C50.3882 30.1587 50.7357 29.8112 50.7357 29.3823C50.7357 20.2312 43.2907 12.7861 34.1395 12.7861Z" fill="#FF5E3F"/>
<path d="M34.1393 18.3428C28.0519 18.3428 23.0997 23.2952 23.0997 29.3825C23.0997 35.4698 28.052 40.4221 34.1393 40.4221C40.2266 40.4221 45.179 35.4697 45.179 29.3825C45.179 23.2952 40.2267 18.3428 34.1393 18.3428ZM34.1393 38.8694C28.9082 38.8694 24.6525 34.6135 24.6525 29.3825C24.6525 24.1513 28.9083 19.8955 34.1393 19.8955C39.3705 19.8955 43.6262 24.1514 43.6262 29.3825C43.6262 34.6135 39.3706 38.8694 34.1393 38.8694Z" fill="#FF5E3F"/>
<path d="M34.9158 28.9275V25.8442C35.6771 26.0608 36.2293 26.5809 36.2293 27.1713C36.2293 27.6002 36.5768 27.9477 37.0056 27.9477C37.4345 27.9477 37.782 27.6002 37.782 27.1713C37.782 25.7426 36.5524 24.5455 34.9158 24.2529V23.65C34.9158 23.2212 34.5683 22.8737 34.1395 22.8737C33.7106 22.8737 33.3631 23.2212 33.3631 23.65V24.2529C31.7265 24.5455 30.4969 25.7426 30.4969 27.1713C30.4969 28.1214 31.5271 28.8021 33.3631 29.8371V32.9204C32.6018 32.7038 32.0497 32.1838 32.0497 31.5933C32.0497 31.1645 31.7022 30.817 31.2733 30.817C30.8445 30.817 30.4969 31.1645 30.4969 31.5933C30.4969 33.0221 31.7265 34.2191 33.3631 34.5118V35.1146C33.3631 35.5435 33.7106 35.891 34.1395 35.891C34.5683 35.891 34.9158 35.5435 34.9158 35.1146V34.5118C36.5525 34.2191 37.782 33.0221 37.782 31.5933C37.782 30.6434 36.7519 29.9624 34.9158 28.9275ZM33.363 28.0445C32.7646 27.6878 32.2096 27.3219 32.0528 27.0947C32.098 26.5362 32.6347 26.0507 33.363 25.8435V28.0445ZM34.9158 32.9214V30.7203C35.5143 31.0769 36.0692 31.4428 36.2261 31.6701C36.1809 32.2287 35.6443 32.7143 34.9158 32.9214Z" fill="#FF5E3F"/>
<path d="M14.1855 5.24158C13.7568 5.24158 13.4092 5.58908 13.4092 6.01795V10.8731C13.4092 11.3019 13.7568 11.6495 14.1855 11.6495C14.6143 11.6495 14.9619 11.302 14.9619 10.8732V6.01795C14.9619 5.58908 14.6143 5.24158 14.1855 5.24158Z" fill="#FF5E3F"/>
<path d="M11.7953 0.757019C11.3665 0.757019 11.0189 1.10452 11.0189 1.53339V10.8731C11.0189 11.3019 11.3665 11.6495 11.7953 11.6495C12.2241 11.6495 12.5717 11.302 12.5717 10.8731V1.53339C12.5717 1.10452 12.2241 0.757019 11.7953 0.757019Z" fill="#FF5E3F"/>
<path d="M9.40503 5.24158C8.97627 5.24158 8.62866 5.58908 8.62866 6.01795V10.8731C8.62866 11.3019 8.97627 11.6495 9.40503 11.6495C9.83379 11.6495 10.1814 11.302 10.1814 10.8732V6.01795C10.1814 5.58908 9.83379 5.24158 9.40503 5.24158Z" fill="#FF5E3F"/>
</svg>
